<svg width="214" height="234" viewBox="0 0 214 234" fill="none" xmlns="http://www.w3.org/2000/svg">
<path d="M106.927 0.669434L213.011 59.0006V175.663L106.927 233.994L0.842773 175.663V59.0006L106.927 0.669434Z" fill="#D0B9E7"/>
<path d="M52.6265 113L45.5465 92H47.8265L54.4565 111.77H53.3165L60.1565 92H62.1965L68.9465 111.77H67.8665L74.5565 92H76.6865L69.6065 113H67.2665L60.8165 94.25H61.4165L54.9365 113H52.6265ZM85.7957 113.15C84.1557 113.15 82.7157 112.81 81.4757 112.13C80.2357 111.43 79.2657 110.48 78.5657 109.28C77.8657 108.06 77.5157 106.67 77.5157 105.11C77.5157 103.55 77.8457 102.17 78.5057 100.97C79.1857 99.77 80.1057 98.83 81.2657 98.15C82.4457 97.45 83.7657 97.1 85.2257 97.1C86.7057 97.1 88.0157 97.44 89.1557 98.12C90.3157 98.78 91.2257 99.72 91.8857 100.94C92.5457 102.14 92.8757 103.53 92.8757 105.11C92.8757 105.21 92.8657 105.32 92.8457 105.44C92.8457 105.54 92.8457 105.65 92.8457 105.77H79.1357V104.18H91.7057L90.8657 104.81C90.8657 103.67 90.6157 102.66 90.1157 101.78C89.6357 100.88 88.9757 100.18 88.1357 99.68C87.2957 99.18 86.3257 98.93 85.2257 98.93C84.1457 98.93 83.1757 99.18 82.3157 99.68C81.4557 100.18 80.7857 100.88 80.3057 101.78C79.8257 102.68 79.5857 103.71 79.5857 104.87V105.2C79.5857 106.4 79.8457 107.46 80.3657 108.38C80.9057 109.28 81.6457 109.99 82.5857 110.51C83.5457 111.01 84.6357 111.26 85.8557 111.26C86.8157 111.26 87.7057 111.09 88.5257 110.75C89.3657 110.41 90.0857 109.89 90.6857 109.19L91.8857 110.57C91.1857 111.41 90.3057 112.05 89.2457 112.49C88.2057 112.93 87.0557 113.15 85.7957 113.15ZM97.2112 113V90.74H99.3412V113H97.2112ZM111.808 113.15C110.248 113.15 108.848 112.81 107.608 112.13C106.388 111.43 105.428 110.48 104.728 109.28C104.028 108.06 103.678 106.67 103.678 105.11C103.678 103.53 104.028 102.14 104.728 100.94C105.428 99.74 106.388 98.8 107.608 98.12C108.848 97.44 110.248 97.1 111.808 97.1C113.148 97.1 114.358 97.36 115.438 97.88C116.518 98.4 117.368 99.18 117.988 100.22L116.398 101.3C115.858 100.5 115.188 99.91 114.388 99.53C113.588 99.15 112.718 98.96 111.778 98.96C110.658 98.96 109.648 99.22 108.748 99.74C107.848 100.24 107.138 100.95 106.618 101.87C106.098 102.79 105.838 103.87 105.838 105.11C105.838 106.35 106.098 107.43 106.618 108.35C107.138 109.27 107.848 109.99 108.748 110.51C109.648 111.01 110.658 111.26 111.778 111.26C112.718 111.26 113.588 111.07 114.388 110.69C115.188 110.31 115.858 109.73 116.398 108.95L117.988 110.03C117.368 111.05 116.518 111.83 115.438 112.37C114.358 112.89 113.148 113.15 111.808 113.15ZM128.328 113.15C126.808 113.15 125.438 112.81 124.218 112.13C123.018 111.43 122.068 110.48 121.368 109.28C120.668 108.06 120.318 106.67 120.318 105.11C120.318 103.53 120.668 102.14 121.368 100.94C122.068 99.74 123.018 98.8 124.218 98.12C125.418 97.44 126.788 97.1 128.328 97.1C129.888 97.1 131.268 97.44 132.468 98.12C133.688 98.8 134.638 99.74 135.318 100.94C136.018 102.14 136.368 103.53 136.368 105.11C136.368 106.67 136.018 108.06 135.318 109.28C134.638 110.48 133.688 111.43 132.468 112.13C131.248 112.81 129.868 113.15 128.328 113.15ZM128.328 111.26C129.468 111.26 130.478 111.01 131.358 110.51C132.238 109.99 132.928 109.27 133.428 108.35C133.948 107.41 134.208 106.33 134.208 105.11C134.208 103.87 133.948 102.79 133.428 101.87C132.928 100.95 132.238 100.24 131.358 99.74C130.478 99.22 129.478 98.96 128.358 98.96C127.238 98.96 126.238 99.22 125.358 99.74C124.478 100.24 123.778 100.95 123.258 101.87C122.738 102.79 122.478 103.87 122.478 105.11C122.478 106.33 122.738 107.41 123.258 108.35C123.778 109.27 124.478 109.99 125.358 110.51C126.238 111.01 127.228 111.26 128.328 111.26ZM160.397 97.1C161.677 97.1 162.787 97.35 163.727 97.85C164.687 98.33 165.427 99.07 165.947 100.07C166.487 101.07 166.757 102.33 166.757 103.85V113H164.627V104.06C164.627 102.4 164.227 101.15 163.427 100.31C162.647 99.45 161.537 99.02 160.097 99.02C159.017 99.02 158.077 99.25 157.277 99.71C156.497 100.15 155.887 100.8 155.447 101.66C155.027 102.5 154.817 103.52 154.817 104.72V113H152.687V104.06C152.687 102.4 152.287 101.15 151.487 100.31C150.687 99.45 149.567 99.02 148.127 99.02C147.067 99.02 146.137 99.25 145.337 99.71C144.537 100.15 143.917 100.8 143.477 101.66C143.057 102.5 142.847 103.52 142.847 104.72V113H140.717V97.25H142.757V101.51L142.427 100.76C142.907 99.62 143.677 98.73 144.737 98.09C145.817 97.43 147.087 97.1 148.547 97.1C150.087 97.1 151.397 97.49 152.477 98.27C153.557 99.03 154.257 100.18 154.577 101.72L153.737 101.39C154.197 100.11 155.007 99.08 156.167 98.3C157.347 97.5 158.757 97.1 160.397 97.1ZM72.5137 143.18C70.9537 143.18 69.4537 142.93 68.0137 142.43C66.5937 141.91 65.4937 141.25 64.7137 140.45L65.5837 138.74C66.3237 139.46 67.3137 140.07 68.5537 140.57C69.8137 141.05 71.1337 141.29 72.5137 141.29C73.8337 141.29 74.9037 141.13 75.7237 140.81C76.5637 140.47 77.1737 140.02 77.5537 139.46C77.9537 138.9 78.1537 138.28 78.1537 137.6C78.1537 136.78 77.9137 136.12 77.4337 135.62C76.9737 135.12 76.3637 134.73 75.6037 134.45C74.8437 134.15 74.0037 133.89 73.0837 133.67C72.1637 133.45 71.2437 133.22 70.3237 132.98C69.4037 132.72 68.5537 132.38 67.7737 131.96C67.0137 131.54 66.3937 130.99 65.9137 130.31C65.4537 129.61 65.2237 128.7 65.2237 127.58C65.2237 126.54 65.4937 125.59 66.0337 124.73C66.5937 123.85 67.4437 123.15 68.5837 122.63C69.7237 122.09 71.1837 121.82 72.9637 121.82C74.1437 121.82 75.3137 121.99 76.4737 122.33C77.6337 122.65 78.6337 123.1 79.4737 123.68L78.7237 125.45C77.8237 124.85 76.8637 124.41 75.8437 124.13C74.8437 123.85 73.8737 123.71 72.9337 123.71C71.6737 123.71 70.6337 123.88 69.8137 124.22C68.9937 124.56 68.3837 125.02 67.9837 125.6C67.6037 126.16 67.4137 126.8 67.4137 127.52C67.4137 128.34 67.6437 129 68.1037 129.5C68.5837 130 69.2037 130.39 69.9637 130.67C70.7437 130.95 71.5937 131.2 72.5137 131.42C73.4337 131.64 74.3437 131.88 75.2437 132.14C76.1637 132.4 77.0037 132.74 77.7637 133.16C78.5437 133.56 79.1637 134.1 79.6237 134.78C80.1037 135.46 80.3437 136.35 80.3437 137.45C80.3437 138.47 80.0637 139.42 79.5037 140.3C78.9437 141.16 78.0837 141.86 76.9237 142.4C75.7837 142.92 74.3137 143.18 72.5137 143.18ZM89.7107 143.15C88.2307 143.15 87.0907 142.75 86.2907 141.95C85.4907 141.15 85.0907 140.02 85.0907 138.56V123.77H87.2207V138.44C87.2207 139.36 87.4507 140.07 87.9107 140.57C88.3907 141.07 89.0707 141.32 89.9507 141.32C90.8907 141.32 91.6707 141.05 92.2907 140.51L93.0407 142.04C92.6207 142.42 92.1107 142.7 91.5107 142.88C90.9307 143.06 90.3307 143.15 89.7107 143.15ZM82.2707 129.02V127.25H92.0207V129.02H82.2707ZM103.428 143.15C102.088 143.15 100.918 142.9 99.9182 142.4C98.9182 141.9 98.1382 141.15 97.5782 140.15C97.0382 139.15 96.7682 137.9 96.7682 136.4V127.25H98.8982V136.16C98.8982 137.84 99.3082 139.11 100.128 139.97C100.968 140.81 102.138 141.23 103.638 141.23C104.738 141.23 105.688 141.01 106.488 140.57C107.308 140.11 107.928 139.45 108.348 138.59C108.788 137.73 109.008 136.7 109.008 135.5V127.25H111.138V143H109.098V138.68L109.428 139.46C108.928 140.62 108.148 141.53 107.088 142.19C106.048 142.83 104.828 143.15 103.428 143.15ZM123.344 143.15C121.844 143.15 120.494 142.81 119.294 142.13C118.114 141.45 117.184 140.51 116.504 139.31C115.824 138.09 115.484 136.69 115.484 135.11C115.484 133.51 115.824 132.11 116.504 130.91C117.184 129.71 118.114 128.78 119.294 128.12C120.494 127.44 121.844 127.1 123.344 127.1C124.724 127.1 125.954 127.41 127.034 128.03C128.134 128.65 129.004 129.56 129.644 130.76C130.304 131.94 130.634 133.39 130.634 135.11C130.634 136.81 130.314 138.26 129.674 139.46C129.034 140.66 128.164 141.58 127.064 142.22C125.984 142.84 124.744 143.15 123.344 143.15ZM123.494 141.26C124.614 141.26 125.614 141.01 126.494 140.51C127.394 139.99 128.094 139.27 128.594 138.35C129.114 137.41 129.374 136.33 129.374 135.11C129.374 133.87 129.114 132.79 128.594 131.87C128.094 130.95 127.394 130.24 126.494 129.74C125.614 129.22 124.614 128.96 123.494 128.96C122.394 128.96 121.404 129.22 120.524 129.74C119.644 130.24 118.944 130.95 118.424 131.87C117.904 132.79 117.644 133.87 117.644 135.11C117.644 136.33 117.904 137.41 118.424 138.35C118.944 139.27 119.644 139.99 120.524 140.51C121.404 141.01 122.394 141.26 123.494 141.26ZM129.434 143V138.26L129.644 135.08L129.344 131.9V120.74H131.474V143H129.434ZM137.527 148.97C136.787 148.97 136.077 148.85 135.397 148.61C134.737 148.37 134.167 148.01 133.687 147.53L134.677 145.94C135.077 146.32 135.507 146.61 135.967 146.81C136.447 147.03 136.977 147.14 137.557 147.14C138.257 147.14 138.857 146.94 139.357 146.54C139.877 146.16 140.367 145.48 140.827 144.5L141.847 142.19L142.087 141.86L148.567 127.25H150.667L142.777 144.89C142.337 145.91 141.847 146.72 141.307 147.32C140.787 147.92 140.217 148.34 139.597 148.58C138.977 148.84 138.287 148.97 137.527 148.97ZM141.727 143.45L134.467 127.25H136.687L143.107 141.71L141.727 143.45Z" fill="black"/>
</svg>
