<svg width="214" height="235" viewBox="0 0 214 235" fill="none" xmlns="http://www.w3.org/2000/svg">
<path d="M107.052 0.957379L213.137 59.2886V175.951L107.052 234.282L0.968212 175.951V59.2886L107.052 0.957379Z" fill="#A5E0F9"/>
<path d="M62.4845 67.35H64.4845V89.95H62.4845V67.35ZM58.6845 76.55H63.0345V78.25H58.6845V76.55ZM57.3595 67.85H59.3095V88.8H57.3595V67.85ZM46.4095 70.075H48.4845V83.125H46.4095V70.075ZM46.4095 82.3H47.8595C50.1845 82.3 52.7845 82.15 55.7345 81.575L55.9595 83.375C52.8845 83.975 50.2845 84.1 47.8595 84.1H46.4095V82.3ZM69.7325 88.125C69.3659 88.125 69.0492 87.9917 68.7825 87.725C68.5325 87.4583 68.4075 87.1333 68.4075 86.75C68.4075 86.35 68.5325 86.025 68.7825 85.775C69.0492 85.525 69.3659 85.4 69.7325 85.4C70.0992 85.4 70.4075 85.525 70.6575 85.775C70.9242 86.025 71.0575 86.35 71.0575 86.75C71.0575 87.1333 70.9242 87.4583 70.6575 87.725C70.4075 87.9917 70.0992 88.125 69.7325 88.125ZM79.8804 78.65H81.9804V83.8H79.8804V78.65ZM80.9554 68.8C84.4804 68.8 87.0054 70.975 87.0054 74.125C87.0054 77.275 84.4804 79.45 80.9554 79.45C77.4304 79.45 74.8804 77.275 74.8804 74.125C74.8804 70.975 77.4304 68.8 80.9554 68.8ZM80.9554 70.6C78.6054 70.6 76.9054 72.025 76.9054 74.125C76.9054 76.225 78.6054 77.675 80.9554 77.675C83.2804 77.675 84.9804 76.225 84.9804 74.125C84.9804 72.025 83.2804 70.6 80.9554 70.6ZM89.9554 67.325H92.0304V89.975H89.9554V67.325ZM74.0304 85.075L73.7304 83.35C77.8554 83.35 83.5554 83.325 88.4804 82.55L88.6554 84.075C83.5804 85.05 78.0554 85.075 74.0304 85.075ZM96.6034 80.725H117.103V82.425H96.6034V80.725ZM105.753 81.525H107.803V89.95H105.753V81.525ZM99.1784 68.25H101.253V71.35H112.428V68.25H114.478V78.025H99.1784V68.25ZM101.253 73.025V76.35H112.428V73.025H101.253ZM126.169 85.35H146.644V87.075H126.169V85.35ZM135.319 79.95H137.394V85.85H135.319V79.95ZM128.569 68.95H130.619V72.975H142.144V68.95H144.194V80.5H128.569V68.95ZM130.619 74.65V78.8H142.144V74.65H130.619ZM164.617 67.325H166.692V83.975H164.617V67.325ZM166.042 74.2H170.042V75.925H166.042V74.2ZM152.617 87.75H167.717V89.45H152.617V87.75ZM152.617 82.275H154.692V88.425H152.617V82.275ZM155.467 68.925C158.842 68.925 161.367 71.25 161.367 74.5C161.367 77.775 158.842 80.075 155.467 80.075C152.092 80.075 149.567 77.775 149.567 74.5C149.567 71.25 152.092 68.925 155.467 68.925ZM155.467 70.75C153.267 70.75 151.592 72.3 151.592 74.5C151.592 76.725 153.267 78.25 155.467 78.25C157.667 78.25 159.342 76.725 159.342 74.5C159.342 72.3 157.667 70.75 155.467 70.75ZM71.0574 104.55H76.3574V106.25H71.0574V104.55ZM68.9824 99.15H71.1074C71.1074 105.05 68.1324 109.4 60.8824 111.85L60.0574 110.175C66.5074 108.075 68.9824 104.475 68.9824 99.9V99.15ZM61.0824 99.15H70.2074V100.85H61.0824V99.15ZM68.9574 103.45V104.925L60.3074 105.575L59.9574 103.875L68.9574 103.45ZM75.9824 97.35H78.0574V114.15H75.9824V97.35ZM63.8824 117.75H78.7324V119.45H63.8824V117.75ZM63.8824 112.475H65.9574V118.725H63.8824V112.475ZM82.9805 99.725H95.4555V101.425H82.9805V99.725ZM82.5305 114.4L82.2805 112.625C86.2805 112.625 91.6805 112.55 96.1555 112.025L96.3055 113.575C91.7305 114.275 86.4555 114.4 82.5305 114.4ZM85.2555 101.05H87.2805V113.075H85.2555V101.05ZM90.9055 101.05H92.9305V113.075H90.9055V101.05ZM99.0305 97.35H101.08V119.95H99.0305V97.35ZM94.7055 105.85H100.43V107.575H94.7055V105.85ZM106.404 109.175H108.104C112.529 109.175 115.129 109.075 118.204 108.525L118.379 110.225C115.204 110.775 112.579 110.875 108.104 110.875H106.404V109.175ZM106.354 98.925H116.354V105.55H108.454V110.225H106.404V103.925H114.329V100.6H106.354V98.925ZM121.979 97.375H124.054V113.95H121.979V97.375ZM109.479 117.75H124.754V119.45H109.479V117.75ZM109.479 112.725H111.554V118.275H109.479V112.725ZM117.754 103.225H122.504V105.025H117.754V103.225ZM137.527 98.9H139.327V100.625C139.327 105.55 134.752 109.375 130.227 110.4L129.302 108.675C133.277 107.925 137.527 104.475 137.527 100.625V98.9ZM137.902 98.9H139.702V100.625C139.702 104.5 143.977 107.925 147.927 108.675L147.002 110.4C142.502 109.375 137.902 105.575 137.902 100.625V98.9ZM128.477 115.2H148.952V116.9H128.477V115.2ZM98.426 128.8H108.951V138.05H98.426V128.8ZM106.951 130.475H100.426V136.4H106.951V130.475ZM113.676 127.35H115.751V140.325H113.676V127.35ZM107.551 143H109.326V143.425C109.326 146.675 105.301 149.275 100.726 149.875L100.026 148.275C103.951 147.825 107.551 145.675 107.551 143.425V143ZM107.851 143H109.651V143.425C109.651 145.6 113.151 147.8 117.076 148.275L116.376 149.875C111.776 149.25 107.851 146.6 107.851 143.425V143ZM100.926 141.85H116.276V143.475H100.926V141.85ZM107.551 139.675H109.651V142.575H107.551V139.675ZM56.8834 165.425H61.2084V167.15H56.8834V165.425ZM52.6584 159.475H54.2834V163.775C54.2834 168.5 52.3084 173.075 49.0084 175.1L47.7084 173.525C50.8084 171.7 52.6584 167.65 52.6584 163.775V159.475ZM53.0584 159.475H54.6584V163.7C54.6584 167.325 56.3584 171.175 59.3334 172.975L58.1334 174.6C54.8834 172.6 53.0584 168.1 53.0584 163.7V159.475ZM65.1834 157.35H67.1834V179.95H65.1834V157.35ZM60.6084 157.825H62.5584V178.825H60.6084V157.825ZM72.2564 159.55H82.6564V174.275H72.2564V159.55ZM80.6314 161.225H74.2814V172.6H80.6314V161.225ZM87.3814 157.325H89.4564V179.975H87.3814V157.325ZM110.779 166.35H114.954V168.1H110.779V166.35ZM109.254 157.325H111.354V179.95H109.254V157.325ZM94.8545 159.55H96.9295V173.55H94.8545V159.55ZM94.8545 172.475H96.6545C100.004 172.475 103.429 172.25 107.154 171.475L107.404 173.2C103.554 174 100.079 174.225 96.6545 174.225H94.8545V172.475ZM129.146 161.05H130.846V162.025C130.846 165.9 128.296 169.05 124.521 170.275L123.521 168.65C126.871 167.625 129.146 165 129.146 162.025V161.05ZM129.521 161.05H131.221V162.025C131.221 164.775 133.421 167.25 136.746 168.225L135.771 169.875C131.996 168.7 129.521 165.65 129.521 162.025V161.05ZM124.146 160H136.196V161.675H124.146V160ZM129.146 157.25H131.221V160.675H129.146V157.25ZM138.971 157.35H141.046V170.725H138.971V157.35ZM140.471 163.05H144.396V164.8H140.471V163.05ZM126.846 171.775H141.046V179.65H126.846V171.775ZM139.021 173.425H128.871V177.975H139.021V173.425ZM156.694 162.375H163.519V164.1H156.694V162.375ZM156.694 169.525H163.519V171.25H156.694V169.525ZM152.544 159.075C155.819 159.075 158.169 162.15 158.169 166.95C158.169 171.775 155.819 174.85 152.544 174.85C149.244 174.85 146.919 171.775 146.919 166.95C146.919 162.15 149.244 159.075 152.544 159.075ZM152.544 160.95C150.369 160.95 148.869 163.3 148.869 166.95C148.869 170.625 150.369 173.025 152.544 173.025C154.719 173.025 156.219 170.625 156.219 166.95C156.219 163.3 154.719 160.95 152.544 160.95ZM163.069 157.325H165.119V179.975H163.069V157.325Z" fill="black"/>
</svg>
