<svg width="213" height="235" viewBox="0 0 213 235" fill="none" xmlns="http://www.w3.org/2000/svg">
<path d="M106.234 0.957379L212.318 59.2886V175.951L106.234 234.282L0.149914 175.951V59.2886L106.234 0.957379Z" fill="#A5BDF9"/>
<path d="M43.5705 104.844H45.9225V130.212H43.5705V104.844ZM45.3625 114.84H50.0665V116.8H45.3625V114.84ZM27.5265 121.952H29.5145C34.1905 121.952 37.4665 121.784 41.2465 121.084L41.4985 123.044C37.6065 123.772 34.2745 123.912 29.5145 123.912H27.5265V121.952ZM27.5265 107.308H39.2865V109.212H29.8225V122.82H27.5265V107.308ZM71.1483 108.652H75.5443V110.584H71.1483V108.652ZM71.1483 114.028H75.5443V115.96H71.1483V114.028ZM59.2763 106.356C63.0843 106.356 65.8843 108.82 65.8843 112.348C65.8843 115.848 63.0843 118.284 59.2763 118.284C55.4683 118.284 52.6683 115.848 52.6683 112.348C52.6683 108.82 55.4683 106.356 59.2763 106.356ZM59.2763 108.316C56.7563 108.316 54.9363 109.968 54.9363 112.348C54.9363 114.728 56.7563 116.352 59.2763 116.352C61.7963 116.352 63.6163 114.728 63.6163 112.348C63.6163 109.968 61.7963 108.316 59.2763 108.316ZM69.5243 104.872H71.8483V119.852H69.5243V104.872ZM63.7843 120.664C68.9363 120.664 72.1003 122.428 72.1003 125.396C72.1003 128.392 68.9363 130.128 63.7843 130.128C58.6323 130.128 55.4683 128.392 55.4683 125.396C55.4683 122.428 58.6323 120.664 63.7843 120.664ZM63.7843 122.54C60.0323 122.54 57.7363 123.576 57.7363 125.396C57.7363 127.216 60.0323 128.28 63.7843 128.28C67.5363 128.28 69.8323 127.216 69.8323 125.396C69.8323 123.576 67.5363 122.54 63.7843 122.54ZM95.2821 104.9H97.6061V123.884H95.2821V104.9ZM96.8781 113.188H101.358V115.148H96.8781V113.188ZM78.0341 107.952H92.9861V109.828H78.0341V107.952ZM85.5101 111.228C89.0941 111.228 91.5581 113.104 91.5581 115.96C91.5581 118.788 89.0941 120.664 85.5101 120.664C81.8981 120.664 79.4341 118.788 79.4341 115.96C79.4341 113.104 81.8981 111.228 85.5101 111.228ZM85.5101 113.048C83.2141 113.048 81.6461 114.196 81.6461 115.96C81.6461 117.696 83.2141 118.844 85.5101 118.844C87.7781 118.844 89.3461 117.696 89.3461 115.96C89.3461 114.196 87.7781 113.048 85.5101 113.048ZM84.3341 104.872H86.6581V108.932H84.3341V104.872ZM81.8421 127.72H98.7541V129.624H81.8421V127.72ZM81.8421 122.372H84.1661V128.532H81.8421V122.372ZM121.2 106.608H123.216V108.54C123.216 114.056 118.092 118.34 113.024 119.488L111.988 117.556C116.44 116.716 121.2 112.852 121.2 108.54V106.608ZM121.62 106.608H123.636V108.54C123.636 112.88 128.424 116.716 132.848 117.556L131.812 119.488C126.772 118.34 121.62 114.084 121.62 108.54V106.608ZM111.064 124.864H133.996V126.768H111.064V124.864ZM155.358 104.844H157.654V130.212H155.358V104.844ZM150.094 114.392H155.694V116.324H150.094V114.392ZM137.97 122.204H139.902C144.662 122.204 147.658 122.12 151.214 121.448L151.438 123.352C147.798 123.996 144.718 124.136 139.902 124.136H137.97V122.204ZM137.97 107.168H149.674V109.1H140.266V122.876H137.97V107.168ZM139.678 114.28H148.582V116.156H139.678V114.28ZM180.948 104.872H183.272V130.24H180.948V104.872ZM164.204 121.98H166.248C171.26 121.98 174.508 121.812 178.26 121.112L178.512 123.072C174.648 123.8 171.344 123.94 166.248 123.94H164.204V121.98ZM164.204 107.28H176.16V109.212H166.5V122.708H164.204V107.28Z" fill="black"/>
</svg>
