<svg width="213" height="235" viewBox="0 0 213 235" fill="none" xmlns="http://www.w3.org/2000/svg">
<path d="M106.416 0.958949L212.5 59.2901V175.952L106.416 234.284L0.331604 175.952V59.2901L106.416 0.958949Z" fill="#FEBFBF"/>
<path d="M46.4834 109.35H66.9584V111.075H46.4834V109.35ZM55.6334 103.95H57.7084V109.85H55.6334V103.95ZM48.8834 92.95H50.9334V96.975H62.4584V92.95H64.5084V104.5H48.8834V92.95ZM50.9334 98.65V102.8H62.4584V98.65H50.9334ZM84.9314 91.325H87.0064V107.975H84.9314V91.325ZM86.3564 98.2H90.3564V99.925H86.3564V98.2ZM72.9314 111.75H88.0314V113.45H72.9314V111.75ZM72.9314 106.275H75.0064V112.425H72.9314V106.275ZM75.7814 92.925C79.1564 92.925 81.6814 95.25 81.6814 98.5C81.6814 101.775 79.1564 104.075 75.7814 104.075C72.4064 104.075 69.8814 101.775 69.8814 98.5C69.8814 95.25 72.4064 92.925 75.7814 92.925ZM75.7814 94.75C73.5814 94.75 71.9064 96.3 71.9064 98.5C71.9064 100.725 73.5814 102.25 75.7814 102.25C77.9814 102.25 79.6564 100.725 79.6564 98.5C79.6564 96.3 77.9814 94.75 75.7814 94.75ZM98.9975 103.275H119.472V104.975H98.9975V103.275ZM108.347 104.125H110.422V109.325H108.347V104.125ZM101.597 111.75H117.197V113.45H101.597V111.75ZM101.597 107.325H103.647V112.4H101.597V107.325ZM101.722 92.05H103.772V94.925H114.697V92.05H116.772V101.1H101.722V92.05ZM103.772 96.55V99.425H114.697V96.55H103.772ZM128.021 93.075C131.346 93.075 133.696 96.15 133.696 100.95C133.696 105.775 131.346 108.85 128.021 108.85C124.696 108.85 122.346 105.775 122.346 100.95C122.346 96.15 124.696 93.075 128.021 93.075ZM128.021 94.95C125.821 94.95 124.321 97.3 124.321 100.95C124.321 104.625 125.821 107.025 128.021 107.025C130.196 107.025 131.721 104.625 131.721 100.95C131.721 97.3 130.196 94.95 128.021 94.95ZM138.821 97.025H142.971V98.775H138.821V97.025ZM138.821 103.75H142.971V105.5H138.821V103.75ZM137.296 91.35H139.396V113.95H137.296V91.35ZM155.669 94.55H162.044V96.175H155.669V94.55ZM155.669 98.675H162.044V100.3H155.669V98.675ZM161.519 91.35H163.594V103.125H161.519V91.35ZM149.044 104.25H163.594V109.6H151.119V113.075H149.094V108.05H161.544V105.9H149.044V104.25ZM149.094 112H164.419V113.65H149.094V112ZM146.119 92.375H148.169V95.625H154.294V92.375H156.319V102.25H146.119V92.375ZM148.169 97.25V100.575H154.294V97.25H148.169ZM81.8029 122.9H83.6029V124.625C83.6029 129.55 79.0279 133.375 74.5029 134.4L73.5779 132.675C77.5529 131.925 81.8029 128.475 81.8029 124.625V122.9ZM82.1779 122.9H83.9779V124.625C83.9779 128.5 88.2529 131.925 92.2029 132.675L91.2779 134.4C86.7779 133.375 82.1779 129.575 82.1779 124.625V122.9ZM72.7529 139.2H93.2279V140.9H72.7529V139.2ZM112.301 121.325H114.351V143.975H112.301V121.325ZM107.601 129.85H112.601V131.575H107.601V129.85ZM96.776 136.825H98.501C102.751 136.825 105.426 136.75 108.601 136.15L108.801 137.85C105.551 138.425 102.801 138.55 98.501 138.55H96.776V136.825ZM96.776 123.4H107.226V125.125H98.826V137.425H96.776V123.4ZM98.301 129.75H106.251V131.425H98.301V129.75ZM135.149 121.35H137.224V144H135.149V121.35ZM120.199 136.625H122.024C126.499 136.625 129.399 136.475 132.749 135.85L132.974 137.6C129.524 138.25 126.574 138.375 122.024 138.375H120.199V136.625ZM120.199 123.5H130.874V125.225H122.249V137.275H120.199V123.5Z" fill="black"/>
</svg>
