<svg width="213" height="234" viewBox="0 0 213 234" fill="none" xmlns="http://www.w3.org/2000/svg">
<path d="M106.584 0.577532L212.668 58.9087V175.571L106.584 233.902L0.5 175.571V58.9087L106.584 0.577532Z" fill="#D2E6B9"/>
<path d="M71.6591 94.168C70.1844 94.168 68.8217 93.9253 67.5711 93.44C66.3204 92.936 65.2377 92.236 64.3231 91.34C63.4084 90.444 62.6897 89.3893 62.1671 88.176C61.6631 86.9627 61.4111 85.6373 61.4111 84.2C61.4111 82.7627 61.6631 81.4373 62.1671 80.224C62.6897 79.0107 63.4084 77.956 64.3231 77.06C65.2564 76.164 66.3484 75.4733 67.5991 74.988C68.8497 74.484 70.2124 74.232 71.6871 74.232C73.1057 74.232 74.4404 74.4747 75.6911 74.96C76.9417 75.4267 77.9964 76.136 78.8551 77.088L77.5391 78.404C76.7364 77.5827 75.8497 76.9947 74.8791 76.64C73.9084 76.2667 72.8631 76.08 71.7431 76.08C70.5671 76.08 69.4751 76.2853 68.4671 76.696C67.4591 77.088 66.5817 77.6573 65.8351 78.404C65.0884 79.132 64.5004 79.9907 64.0711 80.98C63.6604 81.9507 63.4551 83.024 63.4551 84.2C63.4551 85.376 63.6604 86.4587 64.0711 87.448C64.5004 88.4187 65.0884 89.2773 65.8351 90.024C66.5817 90.752 67.4591 91.3213 68.4671 91.732C69.4751 92.124 70.5671 92.32 71.7431 92.32C72.8631 92.32 73.9084 92.1333 74.8791 91.76C75.8497 91.3867 76.7364 90.7893 77.5391 89.968L78.8551 91.284C77.9964 92.236 76.9417 92.9547 75.6911 93.44C74.4404 93.9253 73.0964 94.168 71.6591 94.168ZM86.834 94V76.192H79.946V74.4H95.794V76.192H88.906V94H86.834ZM100.952 83.892H111.312V85.684H100.952V83.892ZM101.176 94H99.1041V74.4H112.544V76.192H101.176V94ZM123.675 72.496H135.463V82.856H123.675V72.496ZM133.223 74.372H125.915V81.008H133.223V74.372ZM140.755 70.872H143.079V85.404H140.755V70.872ZM133.895 88.4H135.883V88.876C135.883 92.516 131.375 95.428 126.251 96.1L125.467 94.308C129.863 93.804 133.895 91.396 133.895 88.876V88.4ZM134.231 88.4H136.247V88.876C136.247 91.312 140.167 93.776 144.563 94.308L143.779 96.1C138.627 95.4 134.231 92.432 134.231 88.876V88.4ZM126.475 87.112H143.667V88.932H126.475V87.112ZM133.895 84.676H136.247V87.924H133.895V84.676ZM45.0131 127L38.4051 107.4H40.5331L46.7211 125.852H45.6571L52.0411 107.4H53.9451L60.2451 125.852H59.2371L65.4811 107.4H67.4691L60.8611 127H58.6771L52.6571 109.5H53.2171L47.1691 127H45.0131ZM78.9391 127V123.752L78.8551 123.22V117.788C78.8551 116.537 78.5004 115.576 77.7911 114.904C77.1004 114.232 76.0644 113.896 74.6831 113.896C73.7311 113.896 72.8257 114.055 71.9671 114.372C71.1084 114.689 70.3804 115.109 69.7831 115.632L68.8871 114.148C69.6337 113.513 70.5297 113.028 71.5751 112.692C72.6204 112.337 73.7217 112.16 74.8791 112.16C76.7831 112.16 78.2484 112.636 79.2751 113.588C80.3204 114.521 80.8431 115.949 80.8431 117.872V127H78.9391ZM73.8711 127.14C72.7697 127.14 71.8084 126.963 70.9871 126.608C70.1844 126.235 69.5684 125.731 69.1391 125.096C68.7097 124.443 68.4951 123.696 68.4951 122.856C68.4951 122.091 68.6724 121.4 69.0271 120.784C69.4004 120.149 69.9977 119.645 70.8191 119.272C71.6591 118.88 72.7791 118.684 74.1791 118.684H79.2471V120.168H74.2351C72.8164 120.168 71.8271 120.42 71.2671 120.924C70.7257 121.428 70.4551 122.053 70.4551 122.8C70.4551 123.64 70.7817 124.312 71.4351 124.816C72.0884 125.32 73.0031 125.572 74.1791 125.572C75.2991 125.572 76.2604 125.32 77.0631 124.816C77.8844 124.293 78.4817 123.547 78.8551 122.576L79.3031 123.948C78.9297 124.919 78.2764 125.693 77.3431 126.272C76.4284 126.851 75.2711 127.14 73.8711 127.14ZM86.2427 127V112.3H88.1467V116.304L87.9507 115.604C88.3614 114.484 89.052 113.635 90.0227 113.056C90.9934 112.459 92.1974 112.16 93.6347 112.16V114.092C93.56 114.092 93.4854 114.092 93.4107 114.092C93.336 114.073 93.2614 114.064 93.1867 114.064C91.6374 114.064 90.424 114.54 89.5467 115.492C88.6694 116.425 88.2307 117.76 88.2307 119.496V127H86.2427ZM103.398 132.572C102.054 132.572 100.766 132.376 99.5335 131.984C98.3015 131.592 97.3028 131.032 96.5375 130.304L97.5455 128.792C98.2362 129.408 99.0855 129.893 100.094 130.248C101.12 130.621 102.203 130.808 103.342 130.808C105.208 130.808 106.58 130.369 107.458 129.492C108.335 128.633 108.774 127.289 108.774 125.46V121.792L109.054 119.272L108.858 116.752V112.3H110.762V125.208C110.762 127.747 110.136 129.604 108.886 130.78C107.654 131.975 105.824 132.572 103.398 132.572ZM103.034 126.44C101.634 126.44 100.374 126.141 99.2535 125.544C98.1335 124.928 97.2468 124.079 96.5935 122.996C95.9588 121.913 95.6415 120.672 95.6415 119.272C95.6415 117.872 95.9588 116.64 96.5935 115.576C97.2468 114.493 98.1335 113.653 99.2535 113.056C100.374 112.459 101.634 112.16 103.034 112.16C104.34 112.16 105.516 112.431 106.562 112.972C107.607 113.513 108.438 114.316 109.054 115.38C109.67 116.444 109.978 117.741 109.978 119.272C109.978 120.803 109.67 122.1 109.054 123.164C108.438 124.228 107.607 125.04 106.562 125.6C105.516 126.16 104.34 126.44 103.034 126.44ZM103.23 124.676C104.312 124.676 105.274 124.452 106.114 124.004C106.954 123.537 107.616 122.903 108.102 122.1C108.587 121.279 108.83 120.336 108.83 119.272C108.83 118.208 108.587 117.275 108.102 116.472C107.616 115.669 106.954 115.044 106.114 114.596C105.274 114.129 104.312 113.896 103.23 113.896C102.166 113.896 101.204 114.129 100.346 114.596C99.5055 115.044 98.8428 115.669 98.3575 116.472C97.8908 117.275 97.6575 118.208 97.6575 119.272C97.6575 120.336 97.8908 121.279 98.3575 122.1C98.8428 122.903 99.5055 123.537 100.346 124.004C101.204 124.452 102.166 124.676 103.23 124.676ZM125.505 127V123.752L125.421 123.22V117.788C125.421 116.537 125.067 115.576 124.357 114.904C123.667 114.232 122.631 113.896 121.249 113.896C120.297 113.896 119.392 114.055 118.533 114.372C117.675 114.689 116.947 115.109 116.349 115.632L115.453 114.148C116.2 113.513 117.096 113.028 118.141 112.692C119.187 112.337 120.288 112.16 121.445 112.16C123.349 112.16 124.815 112.636 125.841 113.588C126.887 114.521 127.409 115.949 127.409 117.872V127H125.505ZM120.437 127.14C119.336 127.14 118.375 126.963 117.553 126.608C116.751 126.235 116.135 125.731 115.705 125.096C115.276 124.443 115.061 123.696 115.061 122.856C115.061 122.091 115.239 121.4 115.593 120.784C115.967 120.149 116.564 119.645 117.385 119.272C118.225 118.88 119.345 118.684 120.745 118.684H125.813V120.168H120.801C119.383 120.168 118.393 120.42 117.833 120.924C117.292 121.428 117.021 122.053 117.021 122.8C117.021 123.64 117.348 124.312 118.001 124.816C118.655 125.32 119.569 125.572 120.745 125.572C121.865 125.572 122.827 125.32 123.629 124.816C124.451 124.293 125.048 123.547 125.421 122.576L125.869 123.948C125.496 124.919 124.843 125.693 123.909 126.272C122.995 126.851 121.837 127.14 120.437 127.14ZM151.177 112.16C152.372 112.16 153.408 112.393 154.285 112.86C155.181 113.308 155.872 113.999 156.357 114.932C156.861 115.865 157.113 117.041 157.113 118.46V127H155.125V118.656C155.125 117.107 154.752 115.94 154.005 115.156C153.277 114.353 152.241 113.952 150.897 113.952C149.889 113.952 149.012 114.167 148.265 114.596C147.537 115.007 146.968 115.613 146.557 116.416C146.165 117.2 145.969 118.152 145.969 119.272V127H143.981V118.656C143.981 117.107 143.608 115.94 142.861 115.156C142.114 114.353 141.069 113.952 139.725 113.952C138.736 113.952 137.868 114.167 137.121 114.596C136.374 115.007 135.796 115.613 135.385 116.416C134.993 117.2 134.797 118.152 134.797 119.272V127H132.809V112.3H134.713V116.276L134.405 115.576C134.853 114.512 135.572 113.681 136.561 113.084C137.569 112.468 138.754 112.16 140.117 112.16C141.554 112.16 142.777 112.524 143.785 113.252C144.793 113.961 145.446 115.035 145.745 116.472L144.961 116.164C145.39 114.969 146.146 114.008 147.229 113.28C148.33 112.533 149.646 112.16 151.177 112.16ZM168.748 127.14C167.218 127.14 165.874 126.823 164.716 126.188C163.559 125.535 162.654 124.648 162 123.528C161.347 122.389 161.02 121.092 161.02 119.636C161.02 118.18 161.328 116.892 161.944 115.772C162.579 114.652 163.438 113.775 164.52 113.14C165.622 112.487 166.854 112.16 168.216 112.16C169.598 112.16 170.82 112.477 171.884 113.112C172.967 113.728 173.816 114.605 174.432 115.744C175.048 116.864 175.356 118.161 175.356 119.636C175.356 119.729 175.347 119.832 175.328 119.944C175.328 120.037 175.328 120.14 175.328 120.252H162.532V118.768H174.264L173.48 119.356C173.48 118.292 173.247 117.349 172.78 116.528C172.332 115.688 171.716 115.035 170.932 114.568C170.148 114.101 169.243 113.868 168.216 113.868C167.208 113.868 166.303 114.101 165.5 114.568C164.698 115.035 164.072 115.688 163.624 116.528C163.176 117.368 162.952 118.329 162.952 119.412V119.72C162.952 120.84 163.195 121.829 163.68 122.688C164.184 123.528 164.875 124.191 165.752 124.676C166.648 125.143 167.666 125.376 168.804 125.376C169.7 125.376 170.531 125.217 171.296 124.9C172.08 124.583 172.752 124.097 173.312 123.444L174.432 124.732C173.779 125.516 172.958 126.113 171.968 126.524C170.998 126.935 169.924 127.14 168.748 127.14ZM56.8564 149.808H79.7884V151.712H56.8564V149.808ZM67.3284 150.984H69.6524V156.808H67.3284V150.984ZM59.7964 138.048H76.8204V146.952H59.7964V138.048ZM74.5244 139.924H62.0644V145.076H74.5244V139.924ZM59.7684 159.72H77.2404V161.624H59.7684V159.72ZM59.7684 154.372H62.0644V160.392H59.7684V154.372ZM101.878 136.872H104.118V162.184H101.878V136.872ZM92.6662 145.944H97.5102V147.876H92.6662V145.944ZM96.8102 137.46H98.9942V160.896H96.8102V137.46ZM87.7942 140.792H89.5862V144.012C89.5862 149.556 87.4582 154.792 83.7342 157.144L82.3062 155.408C85.8342 153.28 87.7942 148.66 87.7942 144.012V140.792ZM88.2702 140.792H90.0622V144.012C90.0622 148.408 91.9662 152.804 95.4382 154.82L94.0102 156.528C90.3142 154.288 88.2702 149.304 88.2702 144.012V140.792ZM83.0062 139.812H94.5702V141.744H83.0062V139.812ZM110.5 137.516H129.092V139.336H110.5V137.516ZM110.612 144.068H128.98V145.86H110.612V144.068ZM114.336 138.216H116.66V145.328H114.336V138.216ZM122.96 138.216H125.256V145.328H122.96V138.216ZM108.372 147.932H131.248V149.808H108.372V147.932ZM118.648 149.024H120.944V152.916H118.648V149.024ZM111.144 152.244H128.336V157.788H113.496V160.84H111.2V156.136H126.04V153.98H111.144V152.244ZM111.2 160.14H129.092V161.904H111.2V160.14ZM152.526 136.844H154.85V162.212H152.526V136.844ZM141.494 138.804C145.246 138.804 147.934 142.248 147.934 147.624C147.934 153.028 145.246 156.472 141.494 156.472C137.77 156.472 135.082 153.028 135.082 147.624C135.082 142.248 137.77 138.804 141.494 138.804ZM141.494 140.904C139.03 140.904 137.294 143.536 137.294 147.624C137.294 151.74 139.03 154.428 141.494 154.428C143.986 154.428 145.694 151.74 145.694 147.624C145.694 143.536 143.986 140.904 141.494 140.904Z" fill="black"/>
</svg>
