<svg width="213" height="234" viewBox="0 0 213 234" fill="none" xmlns="http://www.w3.org/2000/svg">
<path d="M106.668 0.577112L212.752 58.9083V175.571L106.668 233.902L0.583599 175.571V58.9083L106.668 0.577112Z" fill="#FDFBC0"/>
<path d="M100.412 104.22H102.902V120.21H100.412V104.22ZM101.852 111.15H106.862V113.22H101.852V111.15ZM85.3523 121.44H102.902V126.93H87.8423V129.81H85.4123V125.28H100.472V123.21H85.3523V121.44ZM85.4123 129.27H103.952V131.04H85.4123V129.27ZM88.9823 115.35H91.4723V118.8H88.9823V115.35ZM82.0223 119.61L81.7223 117.78C86.5523 117.78 93.2123 117.75 98.7923 116.97L99.0023 118.56C93.2123 119.58 86.7623 119.61 82.0223 119.61ZM82.4123 106.29H97.9823V108.06H82.4123V106.29ZM90.2123 108.9C94.0523 108.9 96.5123 110.22 96.5123 112.47C96.5123 114.72 94.0523 116.04 90.2123 116.04C86.3423 116.04 83.8823 114.72 83.8823 112.47C83.8823 110.22 86.3423 108.9 90.2123 108.9ZM90.2123 110.55C87.7823 110.55 86.2223 111.27 86.2223 112.47C86.2223 113.67 87.7823 114.42 90.2123 114.42C92.6423 114.42 94.1723 113.67 94.1723 112.47C94.1723 111.27 92.6423 110.55 90.2123 110.55ZM88.9823 103.95H91.4723V107.22H88.9823V103.95ZM109.5 117.57H134.01V119.61H109.5V117.57ZM120.51 113.22H122.97V118.41H120.51V113.22ZM112.59 112.44H131.16V114.48H112.59V112.44ZM112.59 105.45H130.95V107.46H115.05V113.64H112.59V105.45ZM121.71 121.56C127.5 121.56 131.01 123.33 131.01 126.42C131.01 129.57 127.5 131.31 121.71 131.31C115.92 131.31 112.41 129.57 112.41 126.42C112.41 123.33 115.92 121.56 121.71 121.56ZM121.71 123.48C117.48 123.48 114.93 124.56 114.93 126.42C114.93 128.31 117.48 129.36 121.71 129.36C125.97 129.36 128.49 128.31 128.49 126.42C128.49 124.56 125.97 123.48 121.71 123.48Z" fill="black"/>
</svg>
