<svg width="213" height="234" viewBox="0 0 213 234" fill="none" xmlns="http://www.w3.org/2000/svg">
<path d="M106.151 0.0125902L212.235 58.3438V175.006L106.151 233.337L0.0663452 175.006V58.3438L106.151 0.0125902Z" fill="#EAF9AF"/>
<path d="M58.7617 128.18C57.1817 128.18 55.7217 127.92 54.3817 127.4C53.0417 126.86 51.8817 126.11 50.9017 125.15C49.9217 124.19 49.1517 123.06 48.5917 121.76C48.0517 120.46 47.7817 119.04 47.7817 117.5C47.7817 115.96 48.0517 114.54 48.5917 113.24C49.1517 111.94 49.9217 110.81 50.9017 109.85C51.9017 108.89 53.0717 108.15 54.4117 107.63C55.7517 107.09 57.2117 106.82 58.7917 106.82C60.3117 106.82 61.7417 107.08 63.0817 107.6C64.4217 108.1 65.5517 108.86 66.4717 109.88L65.0617 111.29C64.2017 110.41 63.2517 109.78 62.2117 109.4C61.1717 109 60.0517 108.8 58.8517 108.8C57.5917 108.8 56.4217 109.02 55.3417 109.46C54.2617 109.88 53.3217 110.49 52.5217 111.29C51.7217 112.07 51.0917 112.99 50.6317 114.05C50.1917 115.09 49.9717 116.24 49.9717 117.5C49.9717 118.76 50.1917 119.92 50.6317 120.98C51.0917 122.02 51.7217 122.94 52.5217 123.74C53.3217 124.52 54.2617 125.13 55.3417 125.57C56.4217 125.99 57.5917 126.2 58.8517 126.2C60.0517 126.2 61.1717 126 62.2117 125.6C63.2517 125.2 64.2017 124.56 65.0617 123.68L66.4717 125.09C65.5517 126.11 64.4217 126.88 63.0817 127.4C61.7417 127.92 60.3017 128.18 58.7617 128.18ZM75.0205 128V108.92H67.6405V107H84.6205V108.92H77.2405V128H75.0205ZM90.1471 117.17H101.247V119.09H90.1471V117.17ZM90.3871 128H88.1671V107H102.567V108.92H90.3871V128ZM133.663 103.22H136.063V130.34H133.663V103.22ZM129.283 114.11H134.473V116.15H129.283V114.11ZM122.263 106.7H124.663C124.663 113.69 122.263 120.17 114.523 124.52L113.053 122.75C119.863 118.94 122.263 113.45 122.263 107.18V106.7ZM114.103 106.7H123.103V108.77H114.103V106.7ZM127.633 103.94H130.003V129.02H127.633V103.94ZM148.421 117.56H150.941V123.44H148.421V117.56ZM148.421 108.02H150.431V108.62C150.431 113.36 147.341 117.02 142.781 118.46L141.641 116.51C145.661 115.31 148.421 112.28 148.421 108.62V108.02ZM148.901 108.02H150.911V108.62C150.911 112.13 153.761 115.07 157.751 116.24L156.611 118.16C152.051 116.81 148.901 113.21 148.901 108.62V108.02ZM142.271 106.76H157.181V108.77H142.271V106.76ZM148.421 103.4H150.941V107.63H148.421V103.4ZM160.271 103.19H162.761V130.37H160.271V103.19ZM141.161 124.79L140.801 122.69C145.751 122.69 152.591 122.66 158.501 121.76L158.711 123.59C152.621 124.73 145.991 124.76 141.161 124.79Z" fill="black"/>
</svg>
