<svg width="213" height="234" viewBox="0 0 213 234" fill="none" xmlns="http://www.w3.org/2000/svg">
<path d="M106.234 0.0116822L212.318 58.3429V175.005L106.234 233.336L0.149914 175.005V58.3429L106.234 0.0116822Z" fill="#F9E4AF"/>
<path d="M43.6254 107V89.5H51.1754C53.1254 89.5 54.6337 89.8917 55.7004 90.675C56.7837 91.4583 57.3254 92.5667 57.3254 94C57.3254 94.95 57.1004 95.75 56.6504 96.4C56.2171 97.05 55.6171 97.5417 54.8504 97.875C54.1004 98.2083 53.2754 98.375 52.3754 98.375L52.8004 97.775C53.9171 97.775 54.8754 97.95 55.6754 98.3C56.4921 98.6333 57.1254 99.1417 57.5754 99.825C58.0254 100.492 58.2504 101.325 58.2504 102.325C58.2504 103.808 57.7004 104.958 56.6004 105.775C55.5171 106.592 53.8754 107 51.6754 107H43.6254ZM45.4754 105.475H51.6504C53.1837 105.475 54.3587 105.217 55.1754 104.7C55.9921 104.167 56.4004 103.325 56.4004 102.175C56.4004 101.042 55.9921 100.217 55.1754 99.7C54.3587 99.1667 53.1837 98.9 51.6504 98.9H45.2754V97.375H51.0504C52.4504 97.375 53.5337 97.1083 54.3004 96.575C55.0837 96.0417 55.4754 95.25 55.4754 94.2C55.4754 93.1333 55.0837 92.3417 54.3004 91.825C53.5337 91.2917 52.4504 91.025 51.0504 91.025H45.4754V105.475ZM67.448 107.125C66.1814 107.125 65.0397 106.842 64.023 106.275C63.023 105.692 62.2314 104.9 61.648 103.9C61.0647 102.883 60.773 101.725 60.773 100.425C60.773 99.1083 61.0647 97.95 61.648 96.95C62.2314 95.95 63.023 95.1667 64.023 94.6C65.023 94.0333 66.1647 93.75 67.448 93.75C68.748 93.75 69.898 94.0333 70.898 94.6C71.9147 95.1667 72.7064 95.95 73.273 96.95C73.8564 97.95 74.148 99.1083 74.148 100.425C74.148 101.725 73.8564 102.883 73.273 103.9C72.7064 104.9 71.9147 105.692 70.898 106.275C69.8814 106.842 68.7314 107.125 67.448 107.125ZM67.448 105.55C68.398 105.55 69.2397 105.342 69.973 104.925C70.7064 104.492 71.2814 103.892 71.698 103.125C72.1314 102.342 72.348 101.442 72.348 100.425C72.348 99.3917 72.1314 98.4917 71.698 97.725C71.2814 96.9583 70.7064 96.3667 69.973 95.95C69.2397 95.5167 68.4064 95.3 67.473 95.3C66.5397 95.3 65.7064 95.5167 64.973 95.95C64.2397 96.3667 63.6564 96.9583 63.223 97.725C62.7897 98.4917 62.573 99.3917 62.573 100.425C62.573 101.442 62.7897 102.342 63.223 103.125C63.6564 103.892 64.2397 104.492 64.973 104.925C65.7064 105.342 66.5314 105.55 67.448 105.55ZM78.1469 107V89.5H85.6969C87.6469 89.5 89.1552 89.8917 90.2219 90.675C91.3052 91.4583 91.8469 92.5667 91.8469 94C91.8469 94.95 91.6219 95.75 91.1719 96.4C90.7385 97.05 90.1385 97.5417 89.3719 97.875C88.6219 98.2083 87.7969 98.375 86.8969 98.375L87.3219 97.775C88.4385 97.775 89.3969 97.95 90.1969 98.3C91.0135 98.6333 91.6469 99.1417 92.0969 99.825C92.5469 100.492 92.7719 101.325 92.7719 102.325C92.7719 103.808 92.2219 104.958 91.1219 105.775C90.0385 106.592 88.3969 107 86.1969 107H78.1469ZM79.9969 105.475H86.1719C87.7052 105.475 88.8802 105.217 89.6969 104.7C90.5135 104.167 90.9219 103.325 90.9219 102.175C90.9219 101.042 90.5135 100.217 89.6969 99.7C88.8802 99.1667 87.7052 98.9 86.1719 98.9H79.7969V97.375H85.5719C86.9719 97.375 88.0552 97.1083 88.8219 96.575C89.6052 96.0417 89.9969 95.25 89.9969 94.2C89.9969 93.1333 89.6052 92.3417 88.8219 91.825C88.0552 91.2917 86.9719 91.025 85.5719 91.025H79.9969V105.475ZM103.113 87.8H113.638V97.05H103.113V87.8ZM111.638 89.475H105.113V95.4H111.638V89.475ZM118.363 86.35H120.438V99.325H118.363V86.35ZM112.238 102H114.013V102.425C114.013 105.675 109.988 108.275 105.413 108.875L104.713 107.275C108.638 106.825 112.238 104.675 112.238 102.425V102ZM112.538 102H114.338V102.425C114.338 104.6 117.838 106.8 121.763 107.275L121.063 108.875C116.463 108.25 112.538 105.6 112.538 102.425V102ZM105.613 100.85H120.963V102.475H105.613V100.85ZM112.238 98.675H114.338V101.575H112.238V98.675ZM146.929 86.35H149.004V99.6H146.929V86.35ZM148.429 92.05H152.354V93.8H148.429V92.05ZM140.679 87.8H142.854C142.854 93.5 138.879 97.575 132.279 99.375L131.429 97.75C137.279 96.15 140.679 92.875 140.679 88.7V87.8ZM132.429 87.8H141.829V89.475H132.429V87.8ZM134.329 100.65H149.004V108.95H146.929V102.325H134.329V100.65ZM163.627 94.375H165.677V98.575H163.627V94.375ZM154.452 97.6H174.877V99.275H154.452V97.6ZM164.652 101.125C169.502 101.125 172.402 102.525 172.402 105.025C172.402 107.525 169.502 108.9 164.652 108.9C159.802 108.9 156.902 107.525 156.902 105.025C156.902 102.525 159.802 101.125 164.652 101.125ZM164.652 102.725C161.102 102.725 159.002 103.55 159.002 105.025C159.002 106.5 161.102 107.3 164.652 107.3C168.227 107.3 170.302 106.5 170.302 105.025C170.302 103.55 168.227 102.725 164.652 102.725ZM163.327 88.2H165.177V88.875C165.177 92.5 161.027 94.95 156.327 95.525L155.577 93.85C159.652 93.45 163.327 91.425 163.327 88.875V88.2ZM164.202 88.2H166.027V88.875C166.027 91.425 169.702 93.45 173.777 93.85L173.027 95.525C168.352 94.95 164.202 92.5 164.202 88.875V88.2ZM156.327 87.375H173.052V89.05H156.327V87.375ZM22.7139 134.35H43.1889V136.075H22.7139V134.35ZM31.8639 128.95H33.9389V134.85H31.8639V128.95ZM25.1139 117.95H27.1639V121.975H38.6889V117.95H40.7389V129.5H25.1139V117.95ZM27.1639 123.65V127.8H38.6889V123.65H27.1639ZM61.1619 116.325H63.2369V132.975H61.1619V116.325ZM62.5869 123.2H66.5869V124.925H62.5869V123.2ZM49.1619 136.75H64.2619V138.45H49.1619V136.75ZM49.1619 131.275H51.2369V137.425H49.1619V131.275ZM52.0119 117.925C55.3869 117.925 57.9119 120.25 57.9119 123.5C57.9119 126.775 55.3869 129.075 52.0119 129.075C48.6369 129.075 46.1119 126.775 46.1119 123.5C46.1119 120.25 48.6369 117.925 52.0119 117.925ZM52.0119 119.75C49.8119 119.75 48.1369 121.3 48.1369 123.5C48.1369 125.725 49.8119 127.25 52.0119 127.25C54.2119 127.25 55.8869 125.725 55.8869 123.5C55.8869 121.3 54.2119 119.75 52.0119 119.75ZM80.8279 119.575H82.4779V123.25C82.4779 127.95 79.6029 132.8 76.0779 134.6L74.8779 132.95C78.1029 131.375 80.8279 127.075 80.8279 123.25V119.575ZM81.2029 119.575H82.8529V123.25C82.8529 126.825 85.4029 130.85 88.6779 132.4L87.5029 134.05C83.9279 132.275 81.2029 127.725 81.2029 123.25V119.575ZM75.6779 118.65H87.8529V120.4H75.6779V118.65ZM90.5279 116.35H92.6279V138.95H90.5279V116.35ZM92.1279 125.475H96.3279V127.225H92.1279V125.475ZM107.876 117.875H110.051C110.051 123.625 105.976 127.725 99.401 129.525L98.576 127.9C104.376 126.3 107.876 122.975 107.876 118.775V117.875ZM99.726 117.875H109.151V119.55H99.726V117.875ZM101.751 130.85H116.826V138.9H114.751V132.525H101.751V130.85ZM114.751 116.35H116.826V129.825H114.751V116.35ZM109.126 120.375H115.176V122.075H109.126V120.375ZM108.901 125.175H115.026V126.875H108.901V125.175ZM121.224 127.1H141.649V128.775H121.224V127.1ZM131.424 130.725C136.249 130.725 139.174 132.225 139.174 134.825C139.174 137.425 136.249 138.9 131.424 138.9C126.599 138.9 123.674 137.425 123.674 134.825C123.674 132.225 126.599 130.725 131.424 130.725ZM131.424 132.375C127.899 132.375 125.774 133.25 125.774 134.825C125.774 136.375 127.899 137.275 131.424 137.275C134.974 137.275 137.074 136.375 137.074 134.825C137.074 133.25 134.974 132.375 131.424 132.375ZM130.099 118.4H131.949V119.075C131.949 122.7 127.799 125.175 123.124 125.725L122.374 124.1C126.424 123.65 130.099 121.625 130.099 119.075V118.4ZM130.974 118.4H132.799V119.075C132.799 121.625 136.474 123.65 140.524 124.1L139.774 125.725C135.099 125.175 130.974 122.7 130.974 119.075V118.4ZM123.099 117.5H139.824V119.175H123.099V117.5ZM159.64 118.475H161.49V119.15C161.49 122.975 157.415 125.65 152.79 126.35L152.015 124.675C156.015 124.15 159.64 121.9 159.64 119.15V118.475ZM160.515 118.475H162.34V119.15C162.34 121.9 165.99 124.15 169.99 124.675L169.19 126.35C164.59 125.65 160.515 122.975 160.515 119.15V118.475ZM152.64 117.475H169.365V119.15H152.64V117.475ZM150.765 127.975H171.24V129.675H150.765V127.975ZM160.115 129.025H162.19V134.225H160.115V129.025ZM153.365 136.75H168.965V138.45H153.365V136.75ZM153.365 132.05H155.415V137.4H153.365V132.05ZM190.188 116.325H192.263V138.975H190.188V116.325ZM175.063 118.25H177.113V124.225H183.638V118.25H185.713V133.525H175.063V118.25ZM177.113 125.875V131.825H183.638V125.875H177.113Z" fill="black"/>
</svg>
