<svg width="751" height="767" viewBox="0 0 751 767" fill="none" xmlns="http://www.w3.org/2000/svg">
<path d="M214.052 177.957L320.137 236.289V352.951L214.052 411.282L107.968 352.951V236.289L214.052 177.957Z" fill="#A5E0F9"/>
<path d="M429.234 177.957L535.318 236.289V352.951L429.234 411.282L323.15 352.951V236.289L429.234 177.957Z" fill="#A5BDF9"/>
<path d="M106.584 355.578L212.668 413.909V530.571L106.584 588.902L0.5 530.571V413.909L106.584 355.578Z" fill="#D2E6B9"/>
<path d="M321.668 355.577L427.752 413.908V530.571L321.668 588.902L215.584 530.571V413.908L321.668 355.577Z" fill="#FDFBC0"/>
<path d="M214.151 533.013L320.235 591.344V708.006L214.151 766.337L108.066 708.006V591.344L214.151 533.013Z" fill="#EAF9AF"/>
<path d="M429.234 533.012L535.318 591.343V708.005L429.234 766.336L323.15 708.005V591.343L429.234 533.012Z" fill="#F9E4AF"/>
<path d="M536.927 0.669434L643.011 59.0006V175.663L536.927 233.994L430.843 175.663V59.0006L536.927 0.669434Z" fill="#D0B9E7"/>
<path d="M644.416 177.959L750.5 236.29V352.952L644.416 411.284L538.332 352.952V236.29L644.416 177.959Z" fill="#FEBFBF"/>
<path d="M584.483 286.35H604.958V288.075H584.483V286.35ZM593.633 280.95H595.708V286.85H593.633V280.95ZM586.883 269.95H588.933V273.975H600.458V269.95H602.508V281.5H586.883V269.95ZM588.933 275.65V279.8H600.458V275.65H588.933ZM622.931 268.325H625.006V284.975H622.931V268.325ZM624.356 275.2H628.356V276.925H624.356V275.2ZM610.931 288.75H626.031V290.45H610.931V288.75ZM610.931 283.275H613.006V289.425H610.931V283.275ZM613.781 269.925C617.156 269.925 619.681 272.25 619.681 275.5C619.681 278.775 617.156 281.075 613.781 281.075C610.406 281.075 607.881 278.775 607.881 275.5C607.881 272.25 610.406 269.925 613.781 269.925ZM613.781 271.75C611.581 271.75 609.906 273.3 609.906 275.5C609.906 277.725 611.581 279.25 613.781 279.25C615.981 279.25 617.656 277.725 617.656 275.5C617.656 273.3 615.981 271.75 613.781 271.75ZM636.997 280.275H657.472V281.975H636.997V280.275ZM646.347 281.125H648.422V286.325H646.347V281.125ZM639.597 288.75H655.197V290.45H639.597V288.75ZM639.597 284.325H641.647V289.4H639.597V284.325ZM639.722 269.05H641.772V271.925H652.697V269.05H654.772V278.1H639.722V269.05ZM641.772 273.55V276.425H652.697V273.55H641.772ZM666.021 270.075C669.346 270.075 671.696 273.15 671.696 277.95C671.696 282.775 669.346 285.85 666.021 285.85C662.696 285.85 660.346 282.775 660.346 277.95C660.346 273.15 662.696 270.075 666.021 270.075ZM666.021 271.95C663.821 271.95 662.321 274.3 662.321 277.95C662.321 281.625 663.821 284.025 666.021 284.025C668.196 284.025 669.721 281.625 669.721 277.95C669.721 274.3 668.196 271.95 666.021 271.95ZM676.821 274.025H680.971V275.775H676.821V274.025ZM676.821 280.75H680.971V282.5H676.821V280.75ZM675.296 268.35H677.396V290.95H675.296V268.35ZM693.669 271.55H700.044V273.175H693.669V271.55ZM693.669 275.675H700.044V277.3H693.669V275.675ZM699.519 268.35H701.594V280.125H699.519V268.35ZM687.044 281.25H701.594V286.6H689.119V290.075H687.094V285.05H699.544V282.9H687.044V281.25ZM687.094 289H702.419V290.65H687.094V289ZM684.119 269.375H686.169V272.625H692.294V269.375H694.319V279.25H684.119V269.375ZM686.169 274.25V277.575H692.294V274.25H686.169ZM619.803 299.9H621.603V301.625C621.603 306.55 617.028 310.375 612.503 311.4L611.578 309.675C615.553 308.925 619.803 305.475 619.803 301.625V299.9ZM620.178 299.9H621.978V301.625C621.978 305.5 626.253 308.925 630.203 309.675L629.278 311.4C624.778 310.375 620.178 306.575 620.178 301.625V299.9ZM610.753 316.2H631.228V317.9H610.753V316.2ZM650.301 298.325H652.351V320.975H650.301V298.325ZM645.601 306.85H650.601V308.575H645.601V306.85ZM634.776 313.825H636.501C640.751 313.825 643.426 313.75 646.601 313.15L646.801 314.85C643.551 315.425 640.801 315.55 636.501 315.55H634.776V313.825ZM634.776 300.4H645.226V302.125H636.826V314.425H634.776V300.4ZM636.301 306.75H644.251V308.425H636.301V306.75ZM673.149 298.35H675.224V321H673.149V298.35ZM658.199 313.625H660.024C664.499 313.625 667.399 313.475 670.749 312.85L670.974 314.6C667.524 315.25 664.574 315.375 660.024 315.375H658.199V313.625ZM658.199 300.5H668.874V302.225H660.249V314.275H658.199V300.5Z" fill="black"/>
<path d="M169.484 244.35H171.484V266.95H169.484V244.35ZM165.684 253.55H170.034V255.25H165.684V253.55ZM164.359 244.85H166.309V265.8H164.359V244.85ZM153.409 247.075H155.484V260.125H153.409V247.075ZM153.409 259.3H154.859C157.184 259.3 159.784 259.15 162.734 258.575L162.959 260.375C159.884 260.975 157.284 261.1 154.859 261.1H153.409V259.3ZM176.733 265.125C176.366 265.125 176.049 264.992 175.783 264.725C175.533 264.458 175.408 264.133 175.408 263.75C175.408 263.35 175.533 263.025 175.783 262.775C176.049 262.525 176.366 262.4 176.733 262.4C177.099 262.4 177.408 262.525 177.658 262.775C177.924 263.025 178.058 263.35 178.058 263.75C178.058 264.133 177.924 264.458 177.658 264.725C177.408 264.992 177.099 265.125 176.733 265.125ZM186.88 255.65H188.98V260.8H186.88V255.65ZM187.955 245.8C191.48 245.8 194.005 247.975 194.005 251.125C194.005 254.275 191.48 256.45 187.955 256.45C184.43 256.45 181.88 254.275 181.88 251.125C181.88 247.975 184.43 245.8 187.955 245.8ZM187.955 247.6C185.605 247.6 183.905 249.025 183.905 251.125C183.905 253.225 185.605 254.675 187.955 254.675C190.28 254.675 191.98 253.225 191.98 251.125C191.98 249.025 190.28 247.6 187.955 247.6ZM196.955 244.325H199.03V266.975H196.955V244.325ZM181.03 262.075L180.73 260.35C184.855 260.35 190.555 260.325 195.48 259.55L195.655 261.075C190.58 262.05 185.055 262.075 181.03 262.075ZM203.603 257.725H224.103V259.425H203.603V257.725ZM212.753 258.525H214.803V266.95H212.753V258.525ZM206.178 245.25H208.253V248.35H219.428V245.25H221.478V255.025H206.178V245.25ZM208.253 250.025V253.35H219.428V250.025H208.253ZM233.169 262.35H253.644V264.075H233.169V262.35ZM242.319 256.95H244.394V262.85H242.319V256.95ZM235.569 245.95H237.619V249.975H249.144V245.95H251.194V257.5H235.569V245.95ZM237.619 251.65V255.8H249.144V251.65H237.619ZM271.617 244.325H273.692V260.975H271.617V244.325ZM273.042 251.2H277.042V252.925H273.042V251.2ZM259.617 264.75H274.717V266.45H259.617V264.75ZM259.617 259.275H261.692V265.425H259.617V259.275ZM262.467 245.925C265.842 245.925 268.367 248.25 268.367 251.5C268.367 254.775 265.842 257.075 262.467 257.075C259.092 257.075 256.567 254.775 256.567 251.5C256.567 248.25 259.092 245.925 262.467 245.925ZM262.467 247.75C260.267 247.75 258.592 249.3 258.592 251.5C258.592 253.725 260.267 255.25 262.467 255.25C264.667 255.25 266.342 253.725 266.342 251.5C266.342 249.3 264.667 247.75 262.467 247.75ZM178.057 281.55H183.357V283.25H178.057V281.55ZM175.982 276.15H178.107C178.107 282.05 175.132 286.4 167.882 288.85L167.057 287.175C173.507 285.075 175.982 281.475 175.982 276.9V276.15ZM168.082 276.15H177.207V277.85H168.082V276.15ZM175.957 280.45V281.925L167.307 282.575L166.957 280.875L175.957 280.45ZM182.982 274.35H185.057V291.15H182.982V274.35ZM170.882 294.75H185.732V296.45H170.882V294.75ZM170.882 289.475H172.957V295.725H170.882V289.475ZM189.98 276.725H202.455V278.425H189.98V276.725ZM189.53 291.4L189.28 289.625C193.28 289.625 198.68 289.55 203.155 289.025L203.305 290.575C198.73 291.275 193.455 291.4 189.53 291.4ZM192.255 278.05H194.28V290.075H192.255V278.05ZM197.905 278.05H199.93V290.075H197.905V278.05ZM206.03 274.35H208.08V296.95H206.03V274.35ZM201.705 282.85H207.43V284.575H201.705V282.85ZM213.404 286.175H215.104C219.529 286.175 222.129 286.075 225.204 285.525L225.379 287.225C222.204 287.775 219.579 287.875 215.104 287.875H213.404V286.175ZM213.354 275.925H223.354V282.55H215.454V287.225H213.404V280.925H221.329V277.6H213.354V275.925ZM228.979 274.375H231.054V290.95H228.979V274.375ZM216.479 294.75H231.754V296.45H216.479V294.75ZM216.479 289.725H218.554V295.275H216.479V289.725ZM224.754 280.225H229.504V282.025H224.754V280.225ZM244.527 275.9H246.327V277.625C246.327 282.55 241.752 286.375 237.227 287.4L236.302 285.675C240.277 284.925 244.527 281.475 244.527 277.625V275.9ZM244.902 275.9H246.702V277.625C246.702 281.5 250.977 284.925 254.927 285.675L254.002 287.4C249.502 286.375 244.902 282.575 244.902 277.625V275.9ZM235.477 292.2H255.952V293.9H235.477V292.2ZM205.426 305.8H215.951V315.05H205.426V305.8ZM213.951 307.475H207.426V313.4H213.951V307.475ZM220.676 304.35H222.751V317.325H220.676V304.35ZM214.551 320H216.326V320.425C216.326 323.675 212.301 326.275 207.726 326.875L207.026 325.275C210.951 324.825 214.551 322.675 214.551 320.425V320ZM214.851 320H216.651V320.425C216.651 322.6 220.151 324.8 224.076 325.275L223.376 326.875C218.776 326.25 214.851 323.6 214.851 320.425V320ZM207.926 318.85H223.276V320.475H207.926V318.85ZM214.551 316.675H216.651V319.575H214.551V316.675ZM163.883 342.425H168.208V344.15H163.883V342.425ZM159.658 336.475H161.283V340.775C161.283 345.5 159.308 350.075 156.008 352.1L154.708 350.525C157.808 348.7 159.658 344.65 159.658 340.775V336.475ZM160.058 336.475H161.658V340.7C161.658 344.325 163.358 348.175 166.333 349.975L165.133 351.6C161.883 349.6 160.058 345.1 160.058 340.7V336.475ZM172.183 334.35H174.183V356.95H172.183V334.35ZM167.608 334.825H169.558V355.825H167.608V334.825ZM179.256 336.55H189.656V351.275H179.256V336.55ZM187.631 338.225H181.281V349.6H187.631V338.225ZM194.381 334.325H196.456V356.975H194.381V334.325ZM217.779 343.35H221.954V345.1H217.779V343.35ZM216.254 334.325H218.354V356.95H216.254V334.325ZM201.854 336.55H203.929V350.55H201.854V336.55ZM201.854 349.475H203.654C207.004 349.475 210.429 349.25 214.154 348.475L214.404 350.2C210.554 351 207.079 351.225 203.654 351.225H201.854V349.475ZM236.146 338.05H237.846V339.025C237.846 342.9 235.296 346.05 231.521 347.275L230.521 345.65C233.871 344.625 236.146 342 236.146 339.025V338.05ZM236.521 338.05H238.221V339.025C238.221 341.775 240.421 344.25 243.746 345.225L242.771 346.875C238.996 345.7 236.521 342.65 236.521 339.025V338.05ZM231.146 337H243.196V338.675H231.146V337ZM236.146 334.25H238.221V337.675H236.146V334.25ZM245.971 334.35H248.046V347.725H245.971V334.35ZM247.471 340.05H251.396V341.8H247.471V340.05ZM233.846 348.775H248.046V356.65H233.846V348.775ZM246.021 350.425H235.871V354.975H246.021V350.425ZM263.694 339.375H270.519V341.1H263.694V339.375ZM263.694 346.525H270.519V348.25H263.694V346.525ZM259.544 336.075C262.819 336.075 265.169 339.15 265.169 343.95C265.169 348.775 262.819 351.85 259.544 351.85C256.244 351.85 253.919 348.775 253.919 343.95C253.919 339.15 256.244 336.075 259.544 336.075ZM259.544 337.95C257.369 337.95 255.869 340.3 255.869 343.95C255.869 347.625 257.369 350.025 259.544 350.025C261.719 350.025 263.219 347.625 263.219 343.95C263.219 340.3 261.719 337.95 259.544 337.95ZM270.069 334.325H272.119V356.975H270.069V334.325Z" fill="black"/>
<path d="M71.6591 449.168C70.1844 449.168 68.8217 448.925 67.5711 448.44C66.3204 447.936 65.2377 447.236 64.3231 446.34C63.4084 445.444 62.6897 444.389 62.1671 443.176C61.6631 441.963 61.4111 440.637 61.4111 439.2C61.4111 437.763 61.6631 436.437 62.1671 435.224C62.6897 434.011 63.4084 432.956 64.3231 432.06C65.2564 431.164 66.3484 430.473 67.5991 429.988C68.8497 429.484 70.2124 429.232 71.6871 429.232C73.1057 429.232 74.4404 429.475 75.6911 429.96C76.9417 430.427 77.9964 431.136 78.8551 432.088L77.5391 433.404C76.7364 432.583 75.8497 431.995 74.8791 431.64C73.9084 431.267 72.8631 431.08 71.7431 431.08C70.5671 431.08 69.4751 431.285 68.4671 431.696C67.4591 432.088 66.5817 432.657 65.8351 433.404C65.0884 434.132 64.5004 434.991 64.0711 435.98C63.6604 436.951 63.4551 438.024 63.4551 439.2C63.4551 440.376 63.6604 441.459 64.0711 442.448C64.5004 443.419 65.0884 444.277 65.8351 445.024C66.5817 445.752 67.4591 446.321 68.4671 446.732C69.4751 447.124 70.5671 447.32 71.7431 447.32C72.8631 447.32 73.9084 447.133 74.8791 446.76C75.8497 446.387 76.7364 445.789 77.5391 444.968L78.8551 446.284C77.9964 447.236 76.9417 447.955 75.6911 448.44C74.4404 448.925 73.0964 449.168 71.6591 449.168ZM86.834 449V431.192H79.946V429.4H95.794V431.192H88.906V449H86.834ZM100.952 438.892H111.312V440.684H100.952V438.892ZM101.176 449H99.1041V429.4H112.544V431.192H101.176V449ZM123.675 427.496H135.463V437.856H123.675V427.496ZM133.223 429.372H125.915V436.008H133.223V429.372ZM140.755 425.872H143.079V440.404H140.755V425.872ZM133.895 443.4H135.883V443.876C135.883 447.516 131.375 450.428 126.251 451.1L125.467 449.308C129.863 448.804 133.895 446.396 133.895 443.876V443.4ZM134.231 443.4H136.247V443.876C136.247 446.312 140.167 448.776 144.563 449.308L143.779 451.1C138.627 450.4 134.231 447.432 134.231 443.876V443.4ZM126.475 442.112H143.667V443.932H126.475V442.112ZM133.895 439.676H136.247V442.924H133.895V439.676ZM45.0131 482L38.4051 462.4H40.5331L46.7211 480.852H45.6571L52.0411 462.4H53.9451L60.2451 480.852H59.2371L65.4811 462.4H67.4691L60.8611 482H58.6771L52.6571 464.5H53.2171L47.1691 482H45.0131ZM78.9391 482V478.752L78.8551 478.22V472.788C78.8551 471.537 78.5004 470.576 77.7911 469.904C77.1004 469.232 76.0644 468.896 74.6831 468.896C73.7311 468.896 72.8257 469.055 71.9671 469.372C71.1084 469.689 70.3804 470.109 69.7831 470.632L68.8871 469.148C69.6337 468.513 70.5297 468.028 71.5751 467.692C72.6204 467.337 73.7217 467.16 74.8791 467.16C76.7831 467.16 78.2484 467.636 79.2751 468.588C80.3204 469.521 80.8431 470.949 80.8431 472.872V482H78.9391ZM73.8711 482.14C72.7697 482.14 71.8084 481.963 70.9871 481.608C70.1844 481.235 69.5684 480.731 69.1391 480.096C68.7097 479.443 68.4951 478.696 68.4951 477.856C68.4951 477.091 68.6724 476.4 69.0271 475.784C69.4004 475.149 69.9977 474.645 70.8191 474.272C71.6591 473.88 72.7791 473.684 74.1791 473.684H79.2471V475.168H74.2351C72.8164 475.168 71.8271 475.42 71.2671 475.924C70.7257 476.428 70.4551 477.053 70.4551 477.8C70.4551 478.64 70.7817 479.312 71.4351 479.816C72.0884 480.32 73.0031 480.572 74.1791 480.572C75.2991 480.572 76.2604 480.32 77.0631 479.816C77.8844 479.293 78.4817 478.547 78.8551 477.576L79.3031 478.948C78.9297 479.919 78.2764 480.693 77.3431 481.272C76.4284 481.851 75.2711 482.14 73.8711 482.14ZM86.2427 482V467.3H88.1467V471.304L87.9507 470.604C88.3614 469.484 89.052 468.635 90.0227 468.056C90.9934 467.459 92.1974 467.16 93.6347 467.16V469.092C93.56 469.092 93.4854 469.092 93.4107 469.092C93.336 469.073 93.2614 469.064 93.1867 469.064C91.6374 469.064 90.424 469.54 89.5467 470.492C88.6694 471.425 88.2307 472.76 88.2307 474.496V482H86.2427ZM103.398 487.572C102.054 487.572 100.766 487.376 99.5335 486.984C98.3015 486.592 97.3028 486.032 96.5375 485.304L97.5455 483.792C98.2362 484.408 99.0855 484.893 100.094 485.248C101.12 485.621 102.203 485.808 103.342 485.808C105.208 485.808 106.58 485.369 107.458 484.492C108.335 483.633 108.774 482.289 108.774 480.46V476.792L109.054 474.272L108.858 471.752V467.3H110.762V480.208C110.762 482.747 110.136 484.604 108.886 485.78C107.654 486.975 105.824 487.572 103.398 487.572ZM103.034 481.44C101.634 481.44 100.374 481.141 99.2535 480.544C98.1335 479.928 97.2468 479.079 96.5935 477.996C95.9588 476.913 95.6415 475.672 95.6415 474.272C95.6415 472.872 95.9588 471.64 96.5935 470.576C97.2468 469.493 98.1335 468.653 99.2535 468.056C100.374 467.459 101.634 467.16 103.034 467.16C104.34 467.16 105.516 467.431 106.562 467.972C107.607 468.513 108.438 469.316 109.054 470.38C109.67 471.444 109.978 472.741 109.978 474.272C109.978 475.803 109.67 477.1 109.054 478.164C108.438 479.228 107.607 480.04 106.562 480.6C105.516 481.16 104.34 481.44 103.034 481.44ZM103.23 479.676C104.312 479.676 105.274 479.452 106.114 479.004C106.954 478.537 107.616 477.903 108.102 477.1C108.587 476.279 108.83 475.336 108.83 474.272C108.83 473.208 108.587 472.275 108.102 471.472C107.616 470.669 106.954 470.044 106.114 469.596C105.274 469.129 104.312 468.896 103.23 468.896C102.166 468.896 101.204 469.129 100.346 469.596C99.5055 470.044 98.8428 470.669 98.3575 471.472C97.8908 472.275 97.6575 473.208 97.6575 474.272C97.6575 475.336 97.8908 476.279 98.3575 477.1C98.8428 477.903 99.5055 478.537 100.346 479.004C101.204 479.452 102.166 479.676 103.23 479.676ZM125.505 482V478.752L125.421 478.22V472.788C125.421 471.537 125.067 470.576 124.357 469.904C123.667 469.232 122.631 468.896 121.249 468.896C120.297 468.896 119.392 469.055 118.533 469.372C117.675 469.689 116.947 470.109 116.349 470.632L115.453 469.148C116.2 468.513 117.096 468.028 118.141 467.692C119.187 467.337 120.288 467.16 121.445 467.16C123.349 467.16 124.815 467.636 125.841 468.588C126.887 469.521 127.409 470.949 127.409 472.872V482H125.505ZM120.437 482.14C119.336 482.14 118.375 481.963 117.553 481.608C116.751 481.235 116.135 480.731 115.705 480.096C115.276 479.443 115.061 478.696 115.061 477.856C115.061 477.091 115.239 476.4 115.593 475.784C115.967 475.149 116.564 474.645 117.385 474.272C118.225 473.88 119.345 473.684 120.745 473.684H125.813V475.168H120.801C119.383 475.168 118.393 475.42 117.833 475.924C117.292 476.428 117.021 477.053 117.021 477.8C117.021 478.64 117.348 479.312 118.001 479.816C118.655 480.32 119.569 480.572 120.745 480.572C121.865 480.572 122.827 480.32 123.629 479.816C124.451 479.293 125.048 478.547 125.421 477.576L125.869 478.948C125.496 479.919 124.843 480.693 123.909 481.272C122.995 481.851 121.837 482.14 120.437 482.14ZM151.177 467.16C152.372 467.16 153.408 467.393 154.285 467.86C155.181 468.308 155.872 468.999 156.357 469.932C156.861 470.865 157.113 472.041 157.113 473.46V482H155.125V473.656C155.125 472.107 154.752 470.94 154.005 470.156C153.277 469.353 152.241 468.952 150.897 468.952C149.889 468.952 149.012 469.167 148.265 469.596C147.537 470.007 146.968 470.613 146.557 471.416C146.165 472.2 145.969 473.152 145.969 474.272V482H143.981V473.656C143.981 472.107 143.608 470.94 142.861 470.156C142.114 469.353 141.069 468.952 139.725 468.952C138.736 468.952 137.868 469.167 137.121 469.596C136.374 470.007 135.796 470.613 135.385 471.416C134.993 472.2 134.797 473.152 134.797 474.272V482H132.809V467.3H134.713V471.276L134.405 470.576C134.853 469.512 135.572 468.681 136.561 468.084C137.569 467.468 138.754 467.16 140.117 467.16C141.554 467.16 142.777 467.524 143.785 468.252C144.793 468.961 145.446 470.035 145.745 471.472L144.961 471.164C145.39 469.969 146.146 469.008 147.229 468.28C148.33 467.533 149.646 467.16 151.177 467.16ZM168.748 482.14C167.218 482.14 165.874 481.823 164.716 481.188C163.559 480.535 162.654 479.648 162 478.528C161.347 477.389 161.02 476.092 161.02 474.636C161.02 473.18 161.328 471.892 161.944 470.772C162.579 469.652 163.438 468.775 164.52 468.14C165.622 467.487 166.854 467.16 168.216 467.16C169.598 467.16 170.82 467.477 171.884 468.112C172.967 468.728 173.816 469.605 174.432 470.744C175.048 471.864 175.356 473.161 175.356 474.636C175.356 474.729 175.347 474.832 175.328 474.944C175.328 475.037 175.328 475.14 175.328 475.252H162.532V473.768H174.264L173.48 474.356C173.48 473.292 173.247 472.349 172.78 471.528C172.332 470.688 171.716 470.035 170.932 469.568C170.148 469.101 169.243 468.868 168.216 468.868C167.208 468.868 166.303 469.101 165.5 469.568C164.698 470.035 164.072 470.688 163.624 471.528C163.176 472.368 162.952 473.329 162.952 474.412V474.72C162.952 475.84 163.195 476.829 163.68 477.688C164.184 478.528 164.875 479.191 165.752 479.676C166.648 480.143 167.666 480.376 168.804 480.376C169.7 480.376 170.531 480.217 171.296 479.9C172.08 479.583 172.752 479.097 173.312 478.444L174.432 479.732C173.779 480.516 172.958 481.113 171.968 481.524C170.998 481.935 169.924 482.14 168.748 482.14ZM56.8564 504.808H79.7884V506.712H56.8564V504.808ZM67.3284 505.984H69.6524V511.808H67.3284V505.984ZM59.7964 493.048H76.8204V501.952H59.7964V493.048ZM74.5244 494.924H62.0644V500.076H74.5244V494.924ZM59.7684 514.72H77.2404V516.624H59.7684V514.72ZM59.7684 509.372H62.0644V515.392H59.7684V509.372ZM101.878 491.872H104.118V517.184H101.878V491.872ZM92.6662 500.944H97.5102V502.876H92.6662V500.944ZM96.8102 492.46H98.9942V515.896H96.8102V492.46ZM87.7942 495.792H89.5862V499.012C89.5862 504.556 87.4582 509.792 83.7342 512.144L82.3062 510.408C85.8342 508.28 87.7942 503.66 87.7942 499.012V495.792ZM88.2702 495.792H90.0622V499.012C90.0622 503.408 91.9662 507.804 95.4382 509.82L94.0102 511.528C90.3142 509.288 88.2702 504.304 88.2702 499.012V495.792ZM83.0062 494.812H94.5702V496.744H83.0062V494.812ZM110.5 492.516H129.092V494.336H110.5V492.516ZM110.612 499.068H128.98V500.86H110.612V499.068ZM114.336 493.216H116.66V500.328H114.336V493.216ZM122.96 493.216H125.256V500.328H122.96V493.216ZM108.372 502.932H131.248V504.808H108.372V502.932ZM118.648 504.024H120.944V507.916H118.648V504.024ZM111.144 507.244H128.336V512.788H113.496V515.84H111.2V511.136H126.04V508.98H111.144V507.244ZM111.2 515.14H129.092V516.904H111.2V515.14ZM152.526 491.844H154.85V517.212H152.526V491.844ZM141.494 493.804C145.246 493.804 147.934 497.248 147.934 502.624C147.934 508.028 145.246 511.472 141.494 511.472C137.77 511.472 135.082 508.028 135.082 502.624C135.082 497.248 137.77 493.804 141.494 493.804ZM141.494 495.904C139.03 495.904 137.294 498.536 137.294 502.624C137.294 506.74 139.03 509.428 141.494 509.428C143.986 509.428 145.694 506.74 145.694 502.624C145.694 498.536 143.986 495.904 141.494 495.904Z" fill="black"/>
<path d="M366.571 281.844H368.923V307.212H366.571V281.844ZM368.363 291.84H373.067V293.8H368.363V291.84ZM350.527 298.952H352.515C357.191 298.952 360.467 298.784 364.247 298.084L364.499 300.044C360.607 300.772 357.275 300.912 352.515 300.912H350.527V298.952ZM350.527 284.308H362.287V286.212H352.823V299.82H350.527V284.308ZM394.148 285.652H398.544V287.584H394.148V285.652ZM394.148 291.028H398.544V292.96H394.148V291.028ZM382.276 283.356C386.084 283.356 388.884 285.82 388.884 289.348C388.884 292.848 386.084 295.284 382.276 295.284C378.468 295.284 375.668 292.848 375.668 289.348C375.668 285.82 378.468 283.356 382.276 283.356ZM382.276 285.316C379.756 285.316 377.936 286.968 377.936 289.348C377.936 291.728 379.756 293.352 382.276 293.352C384.796 293.352 386.616 291.728 386.616 289.348C386.616 286.968 384.796 285.316 382.276 285.316ZM392.524 281.872H394.848V296.852H392.524V281.872ZM386.784 297.664C391.936 297.664 395.1 299.428 395.1 302.396C395.1 305.392 391.936 307.128 386.784 307.128C381.632 307.128 378.468 305.392 378.468 302.396C378.468 299.428 381.632 297.664 386.784 297.664ZM386.784 299.54C383.032 299.54 380.736 300.576 380.736 302.396C380.736 304.216 383.032 305.28 386.784 305.28C390.536 305.28 392.832 304.216 392.832 302.396C392.832 300.576 390.536 299.54 386.784 299.54ZM418.282 281.9H420.606V300.884H418.282V281.9ZM419.878 290.188H424.358V292.148H419.878V290.188ZM401.034 284.952H415.986V286.828H401.034V284.952ZM408.51 288.228C412.094 288.228 414.558 290.104 414.558 292.96C414.558 295.788 412.094 297.664 408.51 297.664C404.898 297.664 402.434 295.788 402.434 292.96C402.434 290.104 404.898 288.228 408.51 288.228ZM408.51 290.048C406.214 290.048 404.646 291.196 404.646 292.96C404.646 294.696 406.214 295.844 408.51 295.844C410.778 295.844 412.346 294.696 412.346 292.96C412.346 291.196 410.778 290.048 408.51 290.048ZM407.334 281.872H409.658V285.932H407.334V281.872ZM404.842 304.72H421.754V306.624H404.842V304.72ZM404.842 299.372H407.166V305.532H404.842V299.372ZM444.2 283.608H446.216V285.54C446.216 291.056 441.092 295.34 436.024 296.488L434.988 294.556C439.44 293.716 444.2 289.852 444.2 285.54V283.608ZM444.62 283.608H446.636V285.54C446.636 289.88 451.424 293.716 455.848 294.556L454.812 296.488C449.772 295.34 444.62 291.084 444.62 285.54V283.608ZM434.064 301.864H456.996V303.768H434.064V301.864ZM478.358 281.844H480.654V307.212H478.358V281.844ZM473.094 291.392H478.694V293.324H473.094V291.392ZM460.97 299.204H462.902C467.662 299.204 470.658 299.12 474.214 298.448L474.438 300.352C470.798 300.996 467.718 301.136 462.902 301.136H460.97V299.204ZM460.97 284.168H472.674V286.1H463.266V299.876H460.97V284.168ZM462.678 291.28H471.582V293.156H462.678V291.28ZM503.948 281.872H506.272V307.24H503.948V281.872ZM487.204 298.98H489.248C494.26 298.98 497.508 298.812 501.26 298.112L501.512 300.072C497.648 300.8 494.344 300.94 489.248 300.94H487.204V298.98ZM487.204 284.28H499.16V286.212H489.5V299.708H487.204V284.28Z" fill="black"/>
<path d="M482.627 113L475.547 92H477.827L484.457 111.77H483.317L490.157 92H492.197L498.947 111.77H497.867L504.557 92H506.687L499.607 113H497.267L490.817 94.25H491.417L484.937 113H482.627ZM515.796 113.15C514.156 113.15 512.716 112.81 511.476 112.13C510.236 111.43 509.266 110.48 508.566 109.28C507.866 108.06 507.516 106.67 507.516 105.11C507.516 103.55 507.846 102.17 508.506 100.97C509.186 99.77 510.106 98.83 511.266 98.15C512.446 97.45 513.766 97.1 515.226 97.1C516.706 97.1 518.016 97.44 519.156 98.12C520.316 98.78 521.226 99.72 521.886 100.94C522.546 102.14 522.876 103.53 522.876 105.11C522.876 105.21 522.866 105.32 522.846 105.44C522.846 105.54 522.846 105.65 522.846 105.77H509.136V104.18H521.706L520.866 104.81C520.866 103.67 520.616 102.66 520.116 101.78C519.636 100.88 518.976 100.18 518.136 99.68C517.296 99.18 516.326 98.93 515.226 98.93C514.146 98.93 513.176 99.18 512.316 99.68C511.456 100.18 510.786 100.88 510.306 101.78C509.826 102.68 509.586 103.71 509.586 104.87V105.2C509.586 106.4 509.846 107.46 510.366 108.38C510.906 109.28 511.646 109.99 512.586 110.51C513.546 111.01 514.636 111.26 515.856 111.26C516.816 111.26 517.706 111.09 518.526 110.75C519.366 110.41 520.086 109.89 520.686 109.19L521.886 110.57C521.186 111.41 520.306 112.05 519.246 112.49C518.206 112.93 517.056 113.15 515.796 113.15ZM527.211 113V90.74H529.341V113H527.211ZM541.808 113.15C540.248 113.15 538.848 112.81 537.608 112.13C536.388 111.43 535.428 110.48 534.728 109.28C534.028 108.06 533.678 106.67 533.678 105.11C533.678 103.53 534.028 102.14 534.728 100.94C535.428 99.74 536.388 98.8 537.608 98.12C538.848 97.44 540.248 97.1 541.808 97.1C543.148 97.1 544.358 97.36 545.438 97.88C546.518 98.4 547.368 99.18 547.988 100.22L546.398 101.3C545.858 100.5 545.188 99.91 544.388 99.53C543.588 99.15 542.718 98.96 541.778 98.96C540.658 98.96 539.648 99.22 538.748 99.74C537.848 100.24 537.138 100.95 536.618 101.87C536.098 102.79 535.838 103.87 535.838 105.11C535.838 106.35 536.098 107.43 536.618 108.35C537.138 109.27 537.848 109.99 538.748 110.51C539.648 111.01 540.658 111.26 541.778 111.26C542.718 111.26 543.588 111.07 544.388 110.69C545.188 110.31 545.858 109.73 546.398 108.95L547.988 110.03C547.368 111.05 546.518 111.83 545.438 112.37C544.358 112.89 543.148 113.15 541.808 113.15ZM558.328 113.15C556.808 113.15 555.438 112.81 554.218 112.13C553.018 111.43 552.068 110.48 551.368 109.28C550.668 108.06 550.318 106.67 550.318 105.11C550.318 103.53 550.668 102.14 551.368 100.94C552.068 99.74 553.018 98.8 554.218 98.12C555.418 97.44 556.788 97.1 558.328 97.1C559.888 97.1 561.268 97.44 562.468 98.12C563.688 98.8 564.638 99.74 565.318 100.94C566.018 102.14 566.368 103.53 566.368 105.11C566.368 106.67 566.018 108.06 565.318 109.28C564.638 110.48 563.688 111.43 562.468 112.13C561.248 112.81 559.868 113.15 558.328 113.15ZM558.328 111.26C559.468 111.26 560.478 111.01 561.358 110.51C562.238 109.99 562.928 109.27 563.428 108.35C563.948 107.41 564.208 106.33 564.208 105.11C564.208 103.87 563.948 102.79 563.428 101.87C562.928 100.95 562.238 100.24 561.358 99.74C560.478 99.22 559.478 98.96 558.358 98.96C557.238 98.96 556.238 99.22 555.358 99.74C554.478 100.24 553.778 100.95 553.258 101.87C552.738 102.79 552.478 103.87 552.478 105.11C552.478 106.33 552.738 107.41 553.258 108.35C553.778 109.27 554.478 109.99 555.358 110.51C556.238 111.01 557.228 111.26 558.328 111.26ZM590.397 97.1C591.677 97.1 592.787 97.35 593.727 97.85C594.687 98.33 595.427 99.07 595.947 100.07C596.487 101.07 596.757 102.33 596.757 103.85V113H594.627V104.06C594.627 102.4 594.227 101.15 593.427 100.31C592.647 99.45 591.537 99.02 590.097 99.02C589.017 99.02 588.077 99.25 587.277 99.71C586.497 100.15 585.887 100.8 585.447 101.66C585.027 102.5 584.817 103.52 584.817 104.72V113H582.687V104.06C582.687 102.4 582.287 101.15 581.487 100.31C580.687 99.45 579.567 99.02 578.127 99.02C577.067 99.02 576.137 99.25 575.337 99.71C574.537 100.15 573.917 100.8 573.477 101.66C573.057 102.5 572.847 103.52 572.847 104.72V113H570.717V97.25H572.757V101.51L572.427 100.76C572.907 99.62 573.677 98.73 574.737 98.09C575.817 97.43 577.087 97.1 578.547 97.1C580.087 97.1 581.397 97.49 582.477 98.27C583.557 99.03 584.257 100.18 584.577 101.72L583.737 101.39C584.197 100.11 585.007 99.08 586.167 98.3C587.347 97.5 588.757 97.1 590.397 97.1ZM502.514 143.18C500.954 143.18 499.454 142.93 498.014 142.43C496.594 141.91 495.494 141.25 494.714 140.45L495.584 138.74C496.324 139.46 497.314 140.07 498.554 140.57C499.814 141.05 501.134 141.29 502.514 141.29C503.834 141.29 504.904 141.13 505.724 140.81C506.564 140.47 507.174 140.02 507.554 139.46C507.954 138.9 508.154 138.28 508.154 137.6C508.154 136.78 507.914 136.12 507.434 135.62C506.974 135.12 506.364 134.73 505.604 134.45C504.844 134.15 504.004 133.89 503.084 133.67C502.164 133.45 501.244 133.22 500.324 132.98C499.404 132.72 498.554 132.38 497.774 131.96C497.014 131.54 496.394 130.99 495.914 130.31C495.454 129.61 495.224 128.7 495.224 127.58C495.224 126.54 495.494 125.59 496.034 124.73C496.594 123.85 497.444 123.15 498.584 122.63C499.724 122.09 501.184 121.82 502.964 121.82C504.144 121.82 505.314 121.99 506.474 122.33C507.634 122.65 508.634 123.1 509.474 123.68L508.724 125.45C507.824 124.85 506.864 124.41 505.844 124.13C504.844 123.85 503.874 123.71 502.934 123.71C501.674 123.71 500.634 123.88 499.814 124.22C498.994 124.56 498.384 125.02 497.984 125.6C497.604 126.16 497.414 126.8 497.414 127.52C497.414 128.34 497.644 129 498.104 129.5C498.584 130 499.204 130.39 499.964 130.67C500.744 130.95 501.594 131.2 502.514 131.42C503.434 131.64 504.344 131.88 505.244 132.14C506.164 132.4 507.004 132.74 507.764 133.16C508.544 133.56 509.164 134.1 509.624 134.78C510.104 135.46 510.344 136.35 510.344 137.45C510.344 138.47 510.064 139.42 509.504 140.3C508.944 141.16 508.084 141.86 506.924 142.4C505.784 142.92 504.314 143.18 502.514 143.18ZM519.711 143.15C518.231 143.15 517.091 142.75 516.291 141.95C515.491 141.15 515.091 140.02 515.091 138.56V123.77H517.221V138.44C517.221 139.36 517.451 140.07 517.911 140.57C518.391 141.07 519.071 141.32 519.951 141.32C520.891 141.32 521.671 141.05 522.291 140.51L523.041 142.04C522.621 142.42 522.111 142.7 521.511 142.88C520.931 143.06 520.331 143.15 519.711 143.15ZM512.271 129.02V127.25H522.021V129.02H512.271ZM533.428 143.15C532.088 143.15 530.918 142.9 529.918 142.4C528.918 141.9 528.138 141.15 527.578 140.15C527.038 139.15 526.768 137.9 526.768 136.4V127.25H528.898V136.16C528.898 137.84 529.308 139.11 530.128 139.97C530.968 140.81 532.138 141.23 533.638 141.23C534.738 141.23 535.688 141.01 536.488 140.57C537.308 140.11 537.928 139.45 538.348 138.59C538.788 137.73 539.008 136.7 539.008 135.5V127.25H541.138V143H539.098V138.68L539.428 139.46C538.928 140.62 538.148 141.53 537.088 142.19C536.048 142.83 534.828 143.15 533.428 143.15ZM553.344 143.15C551.844 143.15 550.494 142.81 549.294 142.13C548.114 141.45 547.184 140.51 546.504 139.31C545.824 138.09 545.484 136.69 545.484 135.11C545.484 133.51 545.824 132.11 546.504 130.91C547.184 129.71 548.114 128.78 549.294 128.12C550.494 127.44 551.844 127.1 553.344 127.1C554.724 127.1 555.954 127.41 557.034 128.03C558.134 128.65 559.004 129.56 559.644 130.76C560.304 131.94 560.634 133.39 560.634 135.11C560.634 136.81 560.314 138.26 559.674 139.46C559.034 140.66 558.164 141.58 557.064 142.22C555.984 142.84 554.744 143.15 553.344 143.15ZM553.494 141.26C554.614 141.26 555.614 141.01 556.494 140.51C557.394 139.99 558.094 139.27 558.594 138.35C559.114 137.41 559.374 136.33 559.374 135.11C559.374 133.87 559.114 132.79 558.594 131.87C558.094 130.95 557.394 130.24 556.494 129.74C555.614 129.22 554.614 128.96 553.494 128.96C552.394 128.96 551.404 129.22 550.524 129.74C549.644 130.24 548.944 130.95 548.424 131.87C547.904 132.79 547.644 133.87 547.644 135.11C547.644 136.33 547.904 137.41 548.424 138.35C548.944 139.27 549.644 139.99 550.524 140.51C551.404 141.01 552.394 141.26 553.494 141.26ZM559.434 143V138.26L559.644 135.08L559.344 131.9V120.74H561.474V143H559.434ZM567.527 148.97C566.787 148.97 566.077 148.85 565.397 148.61C564.737 148.37 564.167 148.01 563.687 147.53L564.677 145.94C565.077 146.32 565.507 146.61 565.967 146.81C566.447 147.03 566.977 147.14 567.557 147.14C568.257 147.14 568.857 146.94 569.357 146.54C569.877 146.16 570.367 145.48 570.827 144.5L571.847 142.19L572.087 141.86L578.567 127.25H580.667L572.777 144.89C572.337 145.91 571.847 146.72 571.307 147.32C570.787 147.92 570.217 148.34 569.597 148.58C568.977 148.84 568.287 148.97 567.527 148.97ZM571.727 143.45L564.467 127.25H566.687L573.107 141.71L571.727 143.45Z" fill="black"/>
<path d="M166.762 661.18C165.182 661.18 163.722 660.92 162.382 660.4C161.042 659.86 159.882 659.11 158.902 658.15C157.922 657.19 157.152 656.06 156.592 654.76C156.052 653.46 155.782 652.04 155.782 650.5C155.782 648.96 156.052 647.54 156.592 646.24C157.152 644.94 157.922 643.81 158.902 642.85C159.902 641.89 161.072 641.15 162.412 640.63C163.752 640.09 165.212 639.82 166.792 639.82C168.312 639.82 169.742 640.08 171.082 640.6C172.422 641.1 173.552 641.86 174.472 642.88L173.062 644.29C172.202 643.41 171.252 642.78 170.212 642.4C169.172 642 168.052 641.8 166.852 641.8C165.592 641.8 164.422 642.02 163.342 642.46C162.262 642.88 161.322 643.49 160.522 644.29C159.722 645.07 159.092 645.99 158.632 647.05C158.192 648.09 157.972 649.24 157.972 650.5C157.972 651.76 158.192 652.92 158.632 653.98C159.092 655.02 159.722 655.94 160.522 656.74C161.322 657.52 162.262 658.13 163.342 658.57C164.422 658.99 165.592 659.2 166.852 659.2C168.052 659.2 169.172 659 170.212 658.6C171.252 658.2 172.202 657.56 173.062 656.68L174.472 658.09C173.552 659.11 172.422 659.88 171.082 660.4C169.742 660.92 168.302 661.18 166.762 661.18ZM183.021 661V641.92H175.641V640H192.621V641.92H185.241V661H183.021ZM198.147 650.17H209.247V652.09H198.147V650.17ZM198.387 661H196.167V640H210.567V641.92H198.387V661ZM241.663 636.22H244.063V663.34H241.663V636.22ZM237.283 647.11H242.473V649.15H237.283V647.11ZM230.263 639.7H232.663C232.663 646.69 230.263 653.17 222.523 657.52L221.053 655.75C227.863 651.94 230.263 646.45 230.263 640.18V639.7ZM222.103 639.7H231.103V641.77H222.103V639.7ZM235.633 636.94H238.003V662.02H235.633V636.94ZM256.421 650.56H258.941V656.44H256.421V650.56ZM256.421 641.02H258.431V641.62C258.431 646.36 255.341 650.02 250.781 651.46L249.641 649.51C253.661 648.31 256.421 645.28 256.421 641.62V641.02ZM256.901 641.02H258.911V641.62C258.911 645.13 261.761 648.07 265.751 649.24L264.611 651.16C260.051 649.81 256.901 646.21 256.901 641.62V641.02ZM250.271 639.76H265.181V641.77H250.271V639.76ZM256.421 636.4H258.941V640.63H256.421V636.4ZM268.271 636.19H270.761V663.37H268.271V636.19ZM249.161 657.79L248.801 655.69C253.751 655.69 260.591 655.66 266.501 654.76L266.711 656.59C260.621 657.73 253.991 657.76 249.161 657.79Z" fill="black"/>
<path d="M366.625 640V622.5H374.175C376.125 622.5 377.634 622.892 378.7 623.675C379.784 624.458 380.325 625.567 380.325 627C380.325 627.95 380.1 628.75 379.65 629.4C379.217 630.05 378.617 630.542 377.85 630.875C377.1 631.208 376.275 631.375 375.375 631.375L375.8 630.775C376.917 630.775 377.875 630.95 378.675 631.3C379.492 631.633 380.125 632.142 380.575 632.825C381.025 633.492 381.25 634.325 381.25 635.325C381.25 636.808 380.7 637.958 379.6 638.775C378.517 639.592 376.875 640 374.675 640H366.625ZM368.475 638.475H374.65C376.184 638.475 377.359 638.217 378.175 637.7C378.992 637.167 379.4 636.325 379.4 635.175C379.4 634.042 378.992 633.217 378.175 632.7C377.359 632.167 376.184 631.9 374.65 631.9H368.275V630.375H374.05C375.45 630.375 376.534 630.108 377.3 629.575C378.084 629.042 378.475 628.25 378.475 627.2C378.475 626.133 378.084 625.342 377.3 624.825C376.534 624.292 375.45 624.025 374.05 624.025H368.475V638.475ZM390.448 640.125C389.181 640.125 388.04 639.842 387.023 639.275C386.023 638.692 385.231 637.9 384.648 636.9C384.065 635.883 383.773 634.725 383.773 633.425C383.773 632.108 384.065 630.95 384.648 629.95C385.231 628.95 386.023 628.167 387.023 627.6C388.023 627.033 389.165 626.75 390.448 626.75C391.748 626.75 392.898 627.033 393.898 627.6C394.915 628.167 395.706 628.95 396.273 629.95C396.856 630.95 397.148 632.108 397.148 633.425C397.148 634.725 396.856 635.883 396.273 636.9C395.706 637.9 394.915 638.692 393.898 639.275C392.881 639.842 391.731 640.125 390.448 640.125ZM390.448 638.55C391.398 638.55 392.24 638.342 392.973 637.925C393.706 637.492 394.281 636.892 394.698 636.125C395.131 635.342 395.348 634.442 395.348 633.425C395.348 632.392 395.131 631.492 394.698 630.725C394.281 629.958 393.706 629.367 392.973 628.95C392.24 628.517 391.406 628.3 390.473 628.3C389.54 628.3 388.706 628.517 387.973 628.95C387.24 629.367 386.656 629.958 386.223 630.725C385.79 631.492 385.573 632.392 385.573 633.425C385.573 634.442 385.79 635.342 386.223 636.125C386.656 636.892 387.24 637.492 387.973 637.925C388.706 638.342 389.531 638.55 390.448 638.55ZM401.147 640V622.5H408.697C410.647 622.5 412.155 622.892 413.222 623.675C414.305 624.458 414.847 625.567 414.847 627C414.847 627.95 414.622 628.75 414.172 629.4C413.739 630.05 413.139 630.542 412.372 630.875C411.622 631.208 410.797 631.375 409.897 631.375L410.322 630.775C411.439 630.775 412.397 630.95 413.197 631.3C414.014 631.633 414.647 632.142 415.097 632.825C415.547 633.492 415.772 634.325 415.772 635.325C415.772 636.808 415.222 637.958 414.122 638.775C413.039 639.592 411.397 640 409.197 640H401.147ZM402.997 638.475H409.172C410.705 638.475 411.88 638.217 412.697 637.7C413.514 637.167 413.922 636.325 413.922 635.175C413.922 634.042 413.514 633.217 412.697 632.7C411.88 632.167 410.705 631.9 409.172 631.9H402.797V630.375H408.572C409.972 630.375 411.055 630.108 411.822 629.575C412.605 629.042 412.997 628.25 412.997 627.2C412.997 626.133 412.605 625.342 411.822 624.825C411.055 624.292 409.972 624.025 408.572 624.025H402.997V638.475ZM426.113 620.8H436.638V630.05H426.113V620.8ZM434.638 622.475H428.113V628.4H434.638V622.475ZM441.363 619.35H443.438V632.325H441.363V619.35ZM435.238 635H437.013V635.425C437.013 638.675 432.988 641.275 428.413 641.875L427.713 640.275C431.638 639.825 435.238 637.675 435.238 635.425V635ZM435.538 635H437.338V635.425C437.338 637.6 440.838 639.8 444.763 640.275L444.063 641.875C439.463 641.25 435.538 638.6 435.538 635.425V635ZM428.613 633.85H443.963V635.475H428.613V633.85ZM435.238 631.675H437.338V634.575H435.238V631.675ZM469.929 619.35H472.004V632.6H469.929V619.35ZM471.429 625.05H475.354V626.8H471.429V625.05ZM463.679 620.8H465.854C465.854 626.5 461.879 630.575 455.279 632.375L454.429 630.75C460.279 629.15 463.679 625.875 463.679 621.7V620.8ZM455.429 620.8H464.829V622.475H455.429V620.8ZM457.329 633.65H472.004V641.95H469.929V635.325H457.329V633.65ZM486.627 627.375H488.677V631.575H486.627V627.375ZM477.452 630.6H497.877V632.275H477.452V630.6ZM487.652 634.125C492.502 634.125 495.402 635.525 495.402 638.025C495.402 640.525 492.502 641.9 487.652 641.9C482.802 641.9 479.902 640.525 479.902 638.025C479.902 635.525 482.802 634.125 487.652 634.125ZM487.652 635.725C484.102 635.725 482.002 636.55 482.002 638.025C482.002 639.5 484.102 640.3 487.652 640.3C491.227 640.3 493.302 639.5 493.302 638.025C493.302 636.55 491.227 635.725 487.652 635.725ZM486.327 621.2H488.177V621.875C488.177 625.5 484.027 627.95 479.327 628.525L478.577 626.85C482.652 626.45 486.327 624.425 486.327 621.875V621.2ZM487.202 621.2H489.027V621.875C489.027 624.425 492.702 626.45 496.777 626.85L496.027 628.525C491.352 627.95 487.202 625.5 487.202 621.875V621.2ZM479.327 620.375H496.052V622.05H479.327V620.375ZM345.714 667.35H366.189V669.075H345.714V667.35ZM354.864 661.95H356.939V667.85H354.864V661.95ZM348.114 650.95H350.164V654.975H361.689V650.95H363.739V662.5H348.114V650.95ZM350.164 656.65V660.8H361.689V656.65H350.164ZM384.162 649.325H386.237V665.975H384.162V649.325ZM385.587 656.2H389.587V657.925H385.587V656.2ZM372.162 669.75H387.262V671.45H372.162V669.75ZM372.162 664.275H374.237V670.425H372.162V664.275ZM375.012 650.925C378.387 650.925 380.912 653.25 380.912 656.5C380.912 659.775 378.387 662.075 375.012 662.075C371.637 662.075 369.112 659.775 369.112 656.5C369.112 653.25 371.637 650.925 375.012 650.925ZM375.012 652.75C372.812 652.75 371.137 654.3 371.137 656.5C371.137 658.725 372.812 660.25 375.012 660.25C377.212 660.25 378.887 658.725 378.887 656.5C378.887 654.3 377.212 652.75 375.012 652.75ZM403.828 652.575H405.478V656.25C405.478 660.95 402.603 665.8 399.078 667.6L397.878 665.95C401.103 664.375 403.828 660.075 403.828 656.25V652.575ZM404.203 652.575H405.853V656.25C405.853 659.825 408.403 663.85 411.678 665.4L410.503 667.05C406.928 665.275 404.203 660.725 404.203 656.25V652.575ZM398.678 651.65H410.853V653.4H398.678V651.65ZM413.528 649.35H415.628V671.95H413.528V649.35ZM415.128 658.475H419.328V660.225H415.128V658.475ZM430.876 650.875H433.051C433.051 656.625 428.976 660.725 422.401 662.525L421.576 660.9C427.376 659.3 430.876 655.975 430.876 651.775V650.875ZM422.726 650.875H432.151V652.55H422.726V650.875ZM424.751 663.85H439.826V671.9H437.751V665.525H424.751V663.85ZM437.751 649.35H439.826V662.825H437.751V649.35ZM432.126 653.375H438.176V655.075H432.126V653.375ZM431.901 658.175H438.026V659.875H431.901V658.175ZM444.224 660.1H464.649V661.775H444.224V660.1ZM454.424 663.725C459.249 663.725 462.174 665.225 462.174 667.825C462.174 670.425 459.249 671.9 454.424 671.9C449.599 671.9 446.674 670.425 446.674 667.825C446.674 665.225 449.599 663.725 454.424 663.725ZM454.424 665.375C450.899 665.375 448.774 666.25 448.774 667.825C448.774 669.375 450.899 670.275 454.424 670.275C457.974 670.275 460.074 669.375 460.074 667.825C460.074 666.25 457.974 665.375 454.424 665.375ZM453.099 651.4H454.949V652.075C454.949 655.7 450.799 658.175 446.124 658.725L445.374 657.1C449.424 656.65 453.099 654.625 453.099 652.075V651.4ZM453.974 651.4H455.799V652.075C455.799 654.625 459.474 656.65 463.524 657.1L462.774 658.725C458.099 658.175 453.974 655.7 453.974 652.075V651.4ZM446.099 650.5H462.824V652.175H446.099V650.5ZM482.64 651.475H484.49V652.15C484.49 655.975 480.415 658.65 475.79 659.35L475.015 657.675C479.015 657.15 482.64 654.9 482.64 652.15V651.475ZM483.515 651.475H485.34V652.15C485.34 654.9 488.99 657.15 492.99 657.675L492.19 659.35C487.59 658.65 483.515 655.975 483.515 652.15V651.475ZM475.64 650.475H492.365V652.15H475.64V650.475ZM473.765 660.975H494.24V662.675H473.765V660.975ZM483.115 662.025H485.19V667.225H483.115V662.025ZM476.365 669.75H491.965V671.45H476.365V669.75ZM476.365 665.05H478.415V670.4H476.365V665.05ZM513.188 649.325H515.263V671.975H513.188V649.325ZM498.063 651.25H500.113V657.225H506.638V651.25H508.713V666.525H498.063V651.25ZM500.113 658.875V664.825H506.638V658.875H500.113Z" fill="black"/>
<path d="M315.412 459.22H317.902V475.21H315.412V459.22ZM316.852 466.15H321.862V468.22H316.852V466.15ZM300.352 476.44H317.902V481.93H302.842V484.81H300.412V480.28H315.472V478.21H300.352V476.44ZM300.412 484.27H318.952V486.04H300.412V484.27ZM303.982 470.35H306.472V473.8H303.982V470.35ZM297.022 474.61L296.722 472.78C301.552 472.78 308.212 472.75 313.792 471.97L314.002 473.56C308.212 474.58 301.762 474.61 297.022 474.61ZM297.412 461.29H312.982V463.06H297.412V461.29ZM305.212 463.9C309.052 463.9 311.512 465.22 311.512 467.47C311.512 469.72 309.052 471.04 305.212 471.04C301.342 471.04 298.882 469.72 298.882 467.47C298.882 465.22 301.342 463.9 305.212 463.9ZM305.212 465.55C302.782 465.55 301.222 466.27 301.222 467.47C301.222 468.67 302.782 469.42 305.212 469.42C307.642 469.42 309.172 468.67 309.172 467.47C309.172 466.27 307.642 465.55 305.212 465.55ZM303.982 458.95H306.472V462.22H303.982V458.95ZM324.5 472.57H349.01V474.61H324.5V472.57ZM335.51 468.22H337.97V473.41H335.51V468.22ZM327.59 467.44H346.16V469.48H327.59V467.44ZM327.59 460.45H345.95V462.46H330.05V468.64H327.59V460.45ZM336.71 476.56C342.5 476.56 346.01 478.33 346.01 481.42C346.01 484.57 342.5 486.31 336.71 486.31C330.92 486.31 327.41 484.57 327.41 481.42C327.41 478.33 330.92 476.56 336.71 476.56ZM336.71 478.48C332.48 478.48 329.93 479.56 329.93 481.42C329.93 483.31 332.48 484.36 336.71 484.36C340.97 484.36 343.49 483.31 343.49 481.42C343.49 479.56 340.97 478.48 336.71 478.48Z" fill="black"/>
</svg>
